<svg width="286.474609" height="400.000000" viewBox="0 0 286.475 400" fill="none" xmlns="http://www.w3.org/2000/svg" xmlns:xlink="http://www.w3.org/1999/xlink">
	<desc>
			Created with Pixso.
	</desc>
	<defs>
		<clipPath id="clip73_5475">
			<rect id="intellecta_bot" width="286.475006" height="400.000000" fill="white" fill-opacity="0"/>
		</clipPath>
	</defs>
	<g clip-path="url(#clip73_5475)">
		<ellipse id="ellipse" cx="145.492188" cy="387.154297" rx="70.602249" ry="12.844511" fill="#B8B6B6" fill-opacity="1.000000"/>
		<rect id="rect" x="219.125977" y="183.582031" width="13.610072" height="40.830212" transform="rotate(-45 219.125977 183.582031)" fill="#0A1B35" fill-opacity="1.000000"/>
		<path id="path" d="M199.438 171.996C200.579 179.652 207.01 185.676 214.716 186.338C219.089 186.713 223.12 185.453 226.319 183.09C225.979 174.736 222.968 171.418 220.313 170.143C217.064 168.561 214.104 166.4 211.994 163.457L206.074 155.75C201.293 159.322 198.469 165.379 199.438 171.996Z" fill="#E3E2E2" fill-opacity="1.000000" fill-rule="nonzero"/>
		<path id="path" d="M206.091 155.75L212.011 163.457C214.121 166.398 216.877 169.512 220.126 171.094C222.78 172.371 225.995 174.736 226.336 183.088C230.538 179.992 233.26 175.008 233.26 169.393C233.26 160.002 225.655 152.381 216.247 152.381C212.437 152.381 208.915 153.641 206.091 155.75Z" fill="#144793" fill-opacity="1.000000" fill-rule="nonzero"/>
		<circle id="circle" cx="266.315430" cy="281.234375" r="11.908813" fill="#1349A6" fill-opacity="1.000000"/>
		<path id="path" d="M236.832 198.127C236.832 198.127 248.026 202.193 250.493 190.422C250.493 190.422 253.402 182.426 259.357 180.979C259.357 180.979 267.489 178.512 271.997 191C271.997 191 288.432 240.422 275.638 275.586C275.638 275.586 275.195 276.777 273.954 278.359C269.819 283.564 262.437 285.113 256.533 282.068C253.76 280.639 250.578 278.223 247.142 274.275C247.142 274.275 226.931 252.941 223.886 206.701C223.716 204.234 224.311 201.717 225.757 199.727C227.611 197.158 230.997 195.014 236.832 198.127Z" fill="#FFFFFF" fill-opacity="1.000000" fill-rule="nonzero"/>
		<path id="path" d="M248.315 210.123L248.4 210.48C250.374 219.174 254.44 227.322 260.531 233.855C260.531 233.855 278.938 253.387 265.022 283.482C268.459 282.988 271.708 281.236 273.971 278.395C275.213 276.795 275.655 275.605 275.655 275.605C288.448 240.422 272.015 191.018 272.015 191.018C267.506 178.514 259.374 180.998 259.374 180.998C253.42 182.443 250.511 190.439 250.511 190.439C250.34 191.273 250.119 192.021 249.864 192.703C247.771 198.299 246.988 204.287 248.315 210.123Z" fill="#FF754C" fill-opacity="1.000000" fill-rule="nonzero"/>
		<path id="path" d="M271.883 298.98C270.101 299.555 268.174 298.566 267.601 296.785L264.993 288.688L271.471 286.602L274.078 294.699C274.651 296.48 273.664 298.406 271.883 298.98Z" fill="#1349A6" fill-opacity="1.000000" fill-rule="nonzero"/>
		<path id="path" d="M253.306 297.141C251.641 296.287 250.977 294.227 251.83 292.561L255.712 284.992L261.768 288.098L257.886 295.666C257.031 297.33 254.971 297.994 253.306 297.141Z" fill="#1349A6" fill-opacity="1.000000" fill-rule="nonzero"/>
		<path id="path" d="M273.942 284.145L277.048 278.09L284.616 281.971C286.282 282.824 286.945 284.887 286.092 286.551C285.237 288.217 283.177 288.881 281.512 288.025L273.942 284.145Z" fill="#1349A6" fill-opacity="1.000000" fill-rule="nonzero"/>
		<path id="path" d="M97.7207 303.947L98.3672 318.307C98.6055 323.768 100.103 328.904 102.553 333.346C105.921 339.469 111.093 344.268 117.336 346.75C118.936 347.396 120.603 347.873 122.321 348.197C125.23 348.742 127.867 349.1 129.942 349.336C131.916 349.559 133.89 349.678 135.88 349.711C136.306 349.729 136.748 349.729 137.189 349.729L143.179 349.729C143.825 349.729 144.472 349.729 145.101 349.711C146.887 349.66 148.674 349.541 150.426 349.336C152.484 349.1 155.138 348.742 158.047 348.197C159.323 347.959 160.565 347.635 161.773 347.211C167.711 345.186 172.78 341.104 176.387 335.727C179.67 330.793 181.695 324.771 182.001 318.307L182.647 303.947C168.663 307.299 154.424 308.982 140.185 308.982C125.944 308.982 111.722 307.299 97.7207 303.947Z" fill="#FFFFFF" fill-opacity="1.000000" fill-rule="nonzero"/>
		<path id="path" d="M97.7207 303.947L98.3672 318.307C98.6055 323.768 100.103 328.904 102.553 333.346C105.921 339.469 111.093 344.268 117.336 346.75C118.936 347.396 120.603 347.873 122.321 348.197C125.23 348.742 127.867 349.1 129.942 349.336C131.916 349.559 133.89 349.678 135.88 349.711C136.306 349.729 136.748 349.729 137.189 349.729L138.432 349.729C136.985 349.422 135.591 348.996 134.229 348.453C127.986 345.969 122.814 341.17 119.445 335.047C116.996 330.605 115.516 325.469 115.261 320.008L114.683 307.18C109 306.381 103.335 305.309 97.7207 303.947Z" fill="#E3E2E2" fill-opacity="1.000000" fill-rule="nonzero"/>
		<path id="path" d="M182.494 306.822L181.984 318.307C181.694 324.771 179.67 330.793 176.387 335.727C172.78 341.104 167.71 345.186 161.773 347.211C160.565 347.635 159.307 347.959 158.03 348.197C155.138 348.742 152.484 349.098 150.426 349.336C148.656 349.541 146.87 349.66 145.084 349.711C144.454 349.729 143.808 349.729 143.161 349.729L136.85 349.729C137.326 349.729 137.803 349.729 138.278 349.711C140.065 349.66 141.852 349.541 143.621 349.336C145.679 349.098 148.333 348.742 151.226 348.197C152.501 347.959 153.76 347.635 154.968 347.211C160.905 345.186 165.976 341.104 169.582 335.727C172.865 330.793 174.89 324.771 175.179 318.307L175.57 309.578C177.918 308.762 180.215 307.844 182.494 306.822Z" fill="#F2F3F4" fill-opacity="1.000000" fill-rule="nonzero"/>
		<path id="path" d="M141.204 315.701L131.864 314.902C119.19 313.814 106.72 310.479 95.1855 304.576C91.9531 302.926 88.6689 301.004 85.5049 298.826C76.0967 292.326 69.6152 281.729 67.3018 269.717C65.2266 258.881 63.0312 242.377 62.8613 220.449L62.8613 155.682L141.204 155.682L219.547 155.682L219.547 220.449C219.377 242.377 217.199 258.881 215.107 269.717C212.793 281.729 206.312 292.326 196.903 298.826C193.739 301.02 190.456 302.926 187.224 304.576C175.688 310.479 163.219 313.814 150.544 314.902L141.204 315.701Z" fill="#FFFFFF" fill-opacity="1.000000" fill-rule="nonzero"/>
		<path id="path" d="M219.548 156.498L219.548 220.432C219.378 242.361 217.183 258.863 215.107 269.699C212.794 281.711 206.312 292.309 196.904 298.809C193.739 301.004 190.456 302.908 187.224 304.576C185.658 305.375 184.094 306.123 182.494 306.822L182.63 303.945C182.018 304.1 181.405 304.236 180.793 304.371C183.906 302.756 187.054 300.918 190.099 298.809C199.507 292.309 205.988 281.711 208.303 269.699C210.378 258.863 212.572 242.361 212.742 220.432L212.742 157.842C214.886 157.484 217.183 157.043 219.548 156.498Z" fill="#F2F3F4" fill-opacity="1.000000" fill-rule="nonzero"/>
		<path id="path" d="M62.8447 152.688L62.8447 163.117L62.8789 199.744C64.002 197.176 66.2812 195.338 68.9697 195.32L69.1904 195.32C71.9297 195.355 74.1406 197.721 74.5664 200.662C74.9062 203.113 75.2979 205.598 75.7744 208.115C78.1904 221.367 82.2051 235.148 88.8906 246.971C88.5166 245.031 88.1426 243.041 87.7344 241.033C86.3906 234.383 85.3691 227.645 84.6553 220.873C83.957 214.086 83.6172 207.264 83.6172 200.441C83.6172 184.264 94.9131 170.977 109.188 170.312L197.67 166.281C197.67 166.281 207.469 166.639 219.514 163.406L219.514 152.977C207.469 156.209 197.67 155.852 197.67 155.852L85.7266 155.852C85.7266 155.852 75.3486 156.227 62.8447 152.688Z" fill="#E3E2E2" fill-opacity="1.000000" fill-rule="nonzero"/>
		<path id="Union" d="M92.6846 268.717C91.5791 262.83 90.4395 255.311 88.9082 246.975C98.9629 264.922 115.091 278.379 140.694 278.652L141.783 278.652C184.247 278.209 200.596 241.531 206.669 208.203C207.163 205.549 207.588 202.93 207.945 200.359C208.354 197.469 210.667 195.324 213.338 195.324C213.951 195.324 214.563 195.393 215.142 195.545C218.271 196.361 220.348 199.697 220.348 203.27L220.348 220.844C220.178 242.771 217.982 259.275 215.856 270.111C213.542 282.123 206.992 292.721 197.482 299.221C194.284 301.414 190.967 303.32 187.717 304.988C181.882 307.947 175.825 310.244 169.616 311.963C163.406 313.664 157.077 314.77 150.664 315.314C147.517 315.568 144.369 315.705 141.239 315.705L141.238 315.705C138.074 315.705 134.943 315.568 131.813 315.314C119.02 314.225 106.414 310.891 94.7598 304.988C91.5107 303.32 88.1934 301.414 84.9951 299.221C75.4844 292.721 68.9346 282.123 66.6211 270.111C64.4951 259.275 62.2998 242.771 62.1299 220.844L62.1299 203.354C62.1299 202.061 62.4189 200.836 62.8955 199.748C64.001 197.178 66.2812 195.342 68.9863 195.324L69.207 195.324C71.9463 195.357 74.1582 197.723 74.583 200.666C74.9229 203.115 75.3145 205.6 75.791 208.117C78.207 221.371 82.2217 235.15 88.9072 246.975C90.4385 255.311 91.5791 262.83 92.6846 268.717C94.9814 280.982 101.463 291.82 110.888 298.455C114.053 300.701 117.336 302.639 120.568 304.342C131.082 309.836 142.378 313.154 153.913 314.531C153.793 314.549 153.674 314.564 153.554 314.58C153.674 314.564 153.794 314.549 153.913 314.531C142.379 313.154 131.1 309.836 120.568 304.342C117.336 302.639 114.053 300.701 110.889 298.455C101.464 291.82 94.9814 280.982 92.6846 268.717Z" clip-rule="evenodd" fill="#1349A6" fill-opacity="1.000000" fill-rule="evenodd"/>
		<path id="path" d="M62.1299 203.352L62.1299 220.842C62.2998 242.77 64.4951 259.273 66.6211 270.109C68.9346 282.121 75.4844 292.719 84.9951 299.219C88.1934 301.412 91.5107 303.318 94.7598 304.986C106.414 310.889 119.02 314.223 131.813 315.312C134.943 315.566 138.074 315.703 141.238 315.703L150.578 314.887C151.701 314.785 152.807 314.684 153.913 314.529C142.378 313.152 131.082 309.834 120.568 304.34C117.336 302.637 114.053 300.699 110.888 298.453C101.463 291.818 94.9814 280.98 92.6846 268.715C91.5791 262.828 90.4385 255.309 88.9072 246.973C82.2217 235.148 78.207 221.369 75.791 208.115C75.3145 205.598 74.9229 203.113 74.583 200.664C74.1582 197.721 71.9463 195.355 69.207 195.322L68.9863 195.322C66.2812 195.34 64.001 197.176 62.8955 199.746C62.4189 200.834 62.1299 202.059 62.1299 203.352Z" fill="#144793" fill-opacity="1.000000" fill-rule="nonzero"/>
		<path id="path" d="M88.9082 246.973C90.4395 255.309 91.5791 262.828 92.6846 268.715C94.9814 280.98 101.464 291.818 110.889 298.453C114.053 300.699 117.336 302.637 120.568 304.34C131.1 309.834 142.379 313.152 153.913 314.529C152.808 314.682 151.702 314.785 150.579 314.887L141.239 315.703C144.369 315.703 147.517 315.566 150.664 315.312C157.078 314.768 163.406 313.662 169.616 311.961C175.825 310.242 181.882 307.945 187.718 304.986C190.967 303.318 194.284 301.412 197.482 299.219C206.992 292.719 213.542 282.121 215.856 270.109C217.982 259.273 220.178 242.77 220.348 220.842L220.348 203.268C220.348 199.695 218.271 196.359 215.142 195.543C214.563 195.391 213.951 195.322 213.338 195.322C210.667 195.322 208.354 197.467 207.945 200.357C207.588 202.928 207.163 205.547 206.669 208.201C200.596 241.529 184.247 278.207 141.783 278.65L140.694 278.65C115.091 278.377 98.9629 264.92 88.9082 246.973Z" fill="#1349A6" fill-opacity="1.000000" fill-rule="nonzero"/>
		<rect id="rect" x="25.759766" y="212.453125" width="13.610072" height="40.830212" transform="rotate(-135 25.759766 212.453125)" fill="#0A1B35" fill-opacity="1.000000"/>
		<path id="path" d="M74.3281 171.996C73.1885 179.652 66.7578 185.676 59.0508 186.338C54.6787 186.713 50.6465 185.453 47.4482 183.09C47.7881 174.736 50.7998 171.418 53.4541 170.143C56.7031 168.561 59.6631 166.4 61.7725 163.457L67.6934 155.75C72.4736 159.322 75.2979 165.379 74.3281 171.996Z" fill="#B8B6B6" fill-opacity="1.000000" fill-rule="nonzero"/>
		<path id="path" d="M67.6592 155.75L61.7393 163.457C59.6289 166.398 56.873 169.512 53.624 171.094C50.9697 172.371 47.7549 174.736 47.4141 183.088C43.2119 179.992 40.4902 175.008 40.4902 169.393C40.4902 160.002 48.0947 152.381 57.5029 152.381C61.3135 152.381 64.835 153.641 67.6592 155.75Z" fill="#1349A6" fill-opacity="1.000000" fill-rule="nonzero"/>
		<circle id="circle" cx="27.067383" cy="284.841797" r="11.908813" fill="#1349A6" fill-opacity="1.000000"/>
		<path id="path" d="M40.1328 197.637C40.1328 197.637 29.9248 203.76 25.2461 192.686C25.2461 192.686 20.874 185.387 14.7324 185.098C14.7324 185.098 6.27734 184.23 4.23633 197.363C4.23633 197.363 -2.4502 249.014 16.8252 281.1C16.8252 281.1 17.4883 282.189 19.0195 283.498C24.0723 287.82 31.6094 287.922 36.8154 283.805C39.2646 281.865 41.9355 278.889 44.5391 274.363C44.5391 274.363 60.292 249.576 54.457 203.59C54.1504 201.141 53.0791 198.793 51.293 197.092C48.9795 194.914 45.2529 193.469 40.1328 197.637Z" fill="#FFFFFF" fill-opacity="1.000000" fill-rule="nonzero"/>
		<path id="path" d="M31.1504 211.586L31.1504 211.961C30.8613 220.875 28.4287 229.654 23.6992 237.225C23.665 237.293 23.6143 237.344 23.5801 237.412C23.5801 237.412 9.35742 259.92 28.7852 286.799C25.3154 286.969 21.7939 285.881 19.0371 283.516C17.5059 282.189 16.8428 281.1 16.8428 281.1C-2.43262 249.014 4.25391 197.363 4.25391 197.363C6.29492 184.23 14.75 185.098 14.75 185.098C20.875 185.387 25.2637 192.686 25.2637 192.686C25.5869 193.469 25.9443 194.166 26.3359 194.777C29.4658 199.881 31.3379 205.615 31.1504 211.586Z" fill="#FF754C" fill-opacity="1.000000" fill-rule="nonzero"/>
		<path id="path" d="M23.0098 291.072L29.7666 291.881L28.7549 300.328C28.5322 302.186 26.8301 303.523 24.9717 303.301C23.1143 303.078 21.7754 301.377 21.998 299.518L23.0098 291.072Z" fill="#1349A6" fill-opacity="1.000000" fill-rule="nonzero"/>
		<path id="path" d="M32.8115 290.697L38.1611 286.492L43.418 293.18C44.5752 294.65 44.3174 296.801 42.8457 297.957C41.375 299.113 39.2246 298.855 38.0684 297.385L32.8115 290.697Z" fill="#1349A6" fill-opacity="1.000000" fill-rule="nonzero"/>
		<path id="path" d="M8.66992 293.875C7.51367 292.404 7.77051 290.254 9.24219 289.098L15.9297 283.842L20.1348 289.191L13.4473 294.447C11.9766 295.605 9.82617 295.348 8.66992 293.875Z" fill="#1349A6" fill-opacity="1.000000" fill-rule="nonzero"/>
		<path id="path" d="M267.795 103.691C267.778 104.525 267.744 105.359 267.693 106.193C267.37 112.486 266.281 118.766 263.627 124.549C254.883 143.654 236.611 152.246 221.249 156.09C207.4 159.561 195.917 159.188 195.917 159.188L71.9121 159.188C71.9121 159.188 61.0586 159.545 47.7207 156.379C32.1367 152.672 13.168 144.131 4.20215 124.549C1.56543 118.766 0.476562 112.504 0.135742 106.209C0.0849609 105.375 0 101.973 0 101.072C0 85.6758 3.43652 61.959 24.6855 31.5918C24.7197 31.541 24.7871 31.4395 24.8213 31.3887C45.2539 0.96875 80.0273 0 80.0273 0L187.751 0C187.751 0 222.524 0.96875 242.957 31.3887C265.584 63.6602 268.17 88.3965 267.795 103.691Z" fill="#FFFFFF" fill-opacity="1.000000" fill-rule="nonzero"/>
		<path id="path" d="M267.796 103.691C267.778 104.525 267.744 105.359 267.693 106.193C267.37 112.486 266.281 118.766 263.628 124.549C254.883 143.654 236.611 152.246 221.249 156.09C220.671 156.227 220.109 156.363 219.548 156.498L215.244 157.486L212.182 157.979C227.17 153.93 248.401 142.957 256.822 124.549C259.477 118.766 260.565 112.486 260.889 106.193C260.939 105.359 260.974 104.525 260.99 103.691C261.365 88.3965 258.83 63.6602 236.203 31.3887C215.771 0.96875 180.946 0 180.946 0L187.751 0C187.751 0 222.525 0.96875 242.957 31.3887C265.584 63.6602 268.17 88.3965 267.796 103.691Z" fill="#F2F3F4" fill-opacity="1.000000" fill-rule="nonzero"/>
		<path id="path" d="M36.6113 31.5918C57.043 1.17383 102.144 0 102.144 0L80.0273 0C80.0273 0 45.2539 0.96875 24.8213 31.3887C24.8047 31.4043 24.7021 31.5762 24.6855 31.5918C3.43652 61.959 0 85.6758 0 101.072C0 101.973 0.0849609 105.375 0.135742 106.209C0.476562 112.504 1.56543 118.766 4.20215 124.549C13.168 144.131 32.1367 152.672 47.7207 156.379C61.0586 159.545 71.9121 159.188 71.9121 159.188L91.5615 159.188C87.6152 159.102 71.6572 159.748 62.1299 157.486C46.5469 153.777 25.0762 144.131 16.1113 124.549C13.4736 118.766 12.3848 112.504 12.0449 106.209C11.9941 105.375 11.9092 101.973 11.9092 101.072C11.9092 85.6758 15.3623 61.959 36.6113 31.5918Z" fill="#E3E2E2" fill-opacity="1.000000" fill-rule="nonzero"/>
		<path id="path" d="M155.699 0L155.495 1.53125C154.509 8.72656 154.509 16.043 155.495 23.2383L155.699 24.7695L114.869 24.7695L115.073 23.2383C116.06 16.043 116.06 8.72656 115.073 1.53125L114.869 0L155.699 0Z" fill="#FF754C" fill-opacity="1.000000" fill-rule="nonzero"/>
		<path id="path" d="M257.588 94.8457C257.554 91.5098 256.091 28.2754 194.794 24.8555C192.889 24.7031 185.233 24.7871 182.801 24.7871L108.2 24.7871C105.768 24.7871 98.1113 24.7031 96.2061 24.8555C34.9102 28.2754 33.4473 91.5098 33.4131 94.8457C33.3281 95.8828 33.2598 96.9199 33.2598 97.959C33.2598 108.812 38.1768 121.674 59.9189 125.535C61.416 125.809 62.9131 125.961 64.4268 126.08C74.8555 126.965 118.68 127.697 145.509 128.344C172.338 127.697 216.162 126.965 226.591 126.08C228.104 125.943 229.603 125.791 231.1 125.535C252.841 121.656 257.758 108.795 257.758 97.959C257.758 96.9199 257.689 95.8652 257.588 94.8457Z" fill="#000000" fill-opacity="1.000000" fill-rule="nonzero"/>
		<path id="path" d="M257.74 97.9746C257.74 98.5703 257.724 99.166 257.689 99.7617C257.672 99.252 257.621 98.7578 257.587 98.248C257.553 94.9141 256.09 31.6953 194.794 28.2578C192.889 28.1055 185.232 28.1895 182.8 28.1895L108.183 28.1895C105.75 28.1895 98.0938 28.1055 96.1885 28.2578C34.8926 31.6953 33.4297 94.9141 33.3955 98.248C33.3613 98.7578 33.3105 99.252 33.293 99.7617C33.2588 99.166 33.2422 98.5703 33.2422 97.9746C33.2422 96.9199 33.3105 95.8828 33.3955 94.8457C33.4297 91.5098 34.8926 28.291 96.1885 24.8555C98.0938 24.7031 105.75 24.7871 108.183 24.7871L182.8 24.7871C185.232 24.7871 192.889 24.7031 194.794 24.8555C256.09 28.291 257.553 91.5098 257.587 94.8457C257.672 95.8828 257.74 96.9199 257.74 97.9746Z" fill="#545454" fill-opacity="1.000000" fill-rule="nonzero"/>
		<path id="path" d="" fill="#438CED" fill-opacity="1.000000" fill-rule="nonzero"/>
		<path id="path" d="" fill="#438CED" fill-opacity="1.000000" fill-rule="nonzero"/>
		<rect id="rect" x="111.466797" y="52.007812" rx="4.000000" width="13.610072" height="23.817627" fill="#438CED" fill-opacity="1.000000"/>
		<rect id="rect" x="193.126953" y="52.007812" rx="4.000000" width="13.610072" height="23.817627" fill="#438CED" fill-opacity="1.000000"/>
		<path id="path" d="M146.325 104.777L146.312 104.803C145.177 105.156 144.005 104.543 143.65 103.406C143.296 102.271 143.909 101.1 145.045 100.746L145.07 100.758L146.325 104.777ZM176.648 100.756L176.673 100.742C177.811 101.094 178.428 102.264 178.076 103.4C177.726 104.537 176.557 105.154 175.419 104.805L175.406 104.779L176.648 100.756Z" fill="#000000" fill-opacity="0" fill-rule="nonzero"/>
		<path id="path" d="M145.679 102.773C155.699 99.6426 165.906 99.6426 176.046 102.773" stroke="#438CED" stroke-opacity="1.000000" stroke-width="4.250000" stroke-linecap="round"/>
		<path id="glasss" d="M199.847 36.748C184.399 36.748 171.827 49.3203 171.827 64.7676C171.827 65.0059 171.861 65.2266 171.861 65.4648L146.343 65.4648C146.343 65.2266 146.376 65.0059 146.376 64.7676C146.376 49.3203 133.804 36.748 118.356 36.748C102.909 36.748 90.3369 49.3203 90.3369 64.7676C90.3369 80.2148 102.909 92.7871 118.356 92.7871C131.916 92.7871 143.246 83.1074 145.832 70.2793L172.389 70.2793C174.958 83.0898 186.288 92.7871 199.864 92.7871C215.312 92.7871 227.884 80.2148 227.884 64.7676C227.884 49.3203 215.294 36.748 199.847 36.748ZM118.356 87.9551C105.563 87.9551 95.1689 77.5449 95.1689 64.7676C95.1689 51.9922 105.58 41.5801 118.356 41.5801C131.133 41.5801 141.562 51.9922 141.562 64.7676C141.562 77.5449 131.15 87.9551 118.356 87.9551ZM199.847 87.9551C187.054 87.9551 176.642 77.5449 176.642 64.7676C176.642 51.9922 187.054 41.5801 199.847 41.5801C212.641 41.5801 223.035 51.9922 223.035 64.7676C223.035 77.5449 212.623 87.9551 199.847 87.9551Z" fill="#FFFFFF" fill-opacity="1.000000" fill-rule="nonzero"/>
		<path id="logo" d="M186.356 204.322C186.526 203.42 186.611 202.502 186.611 201.549C186.611 195.799 183.277 190.814 178.429 188.432C178.445 188.244 178.463 188.041 178.463 187.854C178.463 184.35 175.621 181.508 172.117 181.508C168.612 181.508 165.771 184.35 165.771 187.854C165.771 188.006 165.771 188.16 165.788 188.312C160.804 190.645 157.35 195.713 157.35 201.566C157.35 202.467 157.435 203.352 157.588 204.203C155.563 205.258 154.186 207.385 154.186 209.816C154.186 213.322 157.026 216.162 160.531 216.162C162.232 216.162 163.798 215.482 164.938 214.377C167.03 215.533 169.429 216.197 171.98 216.197C174.532 216.197 176.812 215.566 178.854 214.479C179.977 215.533 181.491 216.162 183.158 216.162C186.662 216.162 189.504 213.322 189.504 209.816C189.504 207.486 188.245 205.41 186.356 204.322ZM172.134 183.006C174.788 183.006 176.948 185.148 176.966 187.785C176.966 188.33 176.88 188.891 176.71 189.367C176.063 191.289 174.261 192.668 172.134 192.668C170.007 192.668 168.136 191.238 167.523 189.283C167.388 188.822 167.303 188.348 167.303 187.836C167.388 185.234 169.514 183.006 172.134 183.006ZM160.565 214.631C157.895 214.631 155.733 212.471 155.733 209.799C155.733 208.082 156.636 206.566 157.996 205.717C158.438 205.428 158.932 205.223 159.459 205.104C159.816 205.02 160.191 204.969 160.582 204.969C163.253 204.969 165.414 207.129 165.414 209.799C165.414 210.736 165.142 211.604 164.683 212.334C164.41 212.795 164.053 213.186 163.645 213.525C162.811 214.223 161.722 214.631 160.565 214.631ZM172.015 214.598C169.837 214.598 167.778 214.053 165.976 213.117C166.57 212.148 166.911 211.008 166.911 209.799C166.911 206.295 164.07 203.453 160.565 203.453C160.072 203.453 159.578 203.506 159.119 203.625C159 202.943 158.949 202.246 158.949 201.549C158.949 196.461 161.875 192.039 166.128 189.895C166.979 192.396 169.344 194.182 172.134 194.182C174.924 194.182 177.203 192.447 178.088 189.998C182.223 192.191 185.047 196.547 185.047 201.531C185.047 202.264 184.979 202.979 184.876 203.676C184.332 203.521 183.771 203.438 183.175 203.438C179.671 203.438 176.829 206.277 176.829 209.783C176.829 211.041 177.203 212.215 177.833 213.203C176.081 214.088 174.107 214.598 172.015 214.598ZM183.192 214.631C182.086 214.631 181.065 214.258 180.249 213.627C179.823 213.305 179.466 212.912 179.16 212.471C178.649 211.705 178.36 210.787 178.36 209.799C178.36 207.129 180.521 204.969 183.192 204.969C183.668 204.969 184.128 205.037 184.553 205.172C185.08 205.326 185.557 205.564 185.982 205.869C187.224 206.738 188.023 208.184 188.023 209.816C188.023 212.488 185.863 214.631 183.192 214.631Z" fill="#1349A6" fill-opacity="1.000000" fill-rule="nonzero"/>
		<path id="logo" d="M186.611 201.549C186.611 195.799 183.277 190.814 178.429 188.432C178.445 188.244 178.463 188.041 178.463 187.854C178.463 184.35 175.621 181.508 172.117 181.508C168.612 181.508 165.771 184.35 165.771 187.854C165.771 188.006 165.771 188.16 165.788 188.312C160.804 190.645 157.35 195.713 157.35 201.566C157.35 202.467 157.435 203.352 157.588 204.203C155.563 205.258 154.186 207.385 154.186 209.816C154.186 213.322 157.026 216.162 160.531 216.162C162.232 216.162 163.798 215.482 164.938 214.377C167.03 215.533 169.429 216.197 171.98 216.197C174.532 216.197 176.812 215.566 178.854 214.479C179.977 215.533 181.491 216.162 183.158 216.162C186.662 216.162 189.504 213.322 189.504 209.816C189.504 207.486 188.245 205.41 186.356 204.322C186.526 203.42 186.611 202.502 186.611 201.549ZM176.966 187.785C176.966 188.33 176.88 188.891 176.71 189.367C176.063 191.289 174.261 192.668 172.134 192.668C170.007 192.668 168.136 191.238 167.523 189.283C167.388 188.822 167.303 188.348 167.303 187.836C167.388 185.234 169.514 183.006 172.134 183.006C174.788 183.006 176.948 185.148 176.966 187.785ZM155.733 209.799C155.733 208.082 156.636 206.566 157.996 205.717C158.438 205.428 158.932 205.223 159.459 205.104C159.816 205.02 160.191 204.969 160.582 204.969C163.253 204.969 165.414 207.129 165.414 209.799C165.414 210.736 165.142 211.604 164.683 212.334C164.41 212.795 164.053 213.186 163.645 213.525C162.811 214.223 161.722 214.631 160.565 214.631C157.895 214.631 155.733 212.471 155.733 209.799ZM165.976 213.117C166.57 212.148 166.911 211.008 166.911 209.799C166.911 206.295 164.07 203.453 160.565 203.453C160.072 203.453 159.578 203.506 159.119 203.625C159 202.943 158.949 202.246 158.949 201.549C158.949 196.461 161.875 192.039 166.128 189.895C166.979 192.396 169.344 194.182 172.134 194.182C174.924 194.182 177.203 192.447 178.088 189.998C182.223 192.191 185.047 196.547 185.047 201.531C185.047 202.264 184.979 202.979 184.876 203.676C184.332 203.521 183.771 203.438 183.175 203.438C179.671 203.438 176.829 206.277 176.829 209.783C176.829 211.041 177.203 212.215 177.833 213.203C176.081 214.088 174.107 214.598 172.015 214.598C169.837 214.598 167.778 214.053 165.976 213.117ZM180.249 213.627C179.823 213.305 179.466 212.912 179.16 212.471C178.649 211.705 178.36 210.787 178.36 209.799C178.36 207.129 180.521 204.969 183.192 204.969C183.668 204.969 184.128 205.037 184.553 205.172C185.08 205.326 185.557 205.564 185.982 205.869C187.224 206.738 188.023 208.184 188.023 209.816C188.023 212.488 185.863 214.631 183.192 214.631C182.086 214.631 181.065 214.258 180.249 213.627Z" stroke="#1349A6" stroke-opacity="1.000000" stroke-width="0.990000"/>
	</g>
</svg>
