<svg width="284.791016" height="400.000000" viewBox="0 0 284.791 400" fill="none" xmlns="http://www.w3.org/2000/svg" xmlns:xlink="http://www.w3.org/1999/xlink">
	<desc>
			Created with Pixso.
	</desc>
	<defs>
		<clipPath id="clip73_5708">
			<rect id="intellecta_bot" width="284.790741" height="400.000000" fill="white" fill-opacity="0"/>
		</clipPath>
	</defs>
	<g clip-path="url(#clip73_5708)">
		<ellipse id="ellipse" cx="143.791016" cy="387.154297" rx="70.602249" ry="12.844511" fill="#B8B6B6" fill-opacity="1.000000"/>
		<rect id="rect" x="218.847656" y="179.859375" width="13.610070" height="54.814564" transform="rotate(-47.44 218.847656 179.859375)" fill="#0A1B35" fill-opacity="1.000000"/>
		<path id="path" d="M199.438 182.203C200.579 189.859 207.01 195.883 214.716 196.545C219.089 196.92 223.12 195.66 226.319 193.297C225.979 184.943 222.968 181.625 220.313 180.35C217.064 178.768 214.104 176.607 211.994 173.664L206.074 165.957C201.293 169.529 198.469 175.586 199.438 182.203Z" fill="#E3E2E2" fill-opacity="1.000000" fill-rule="nonzero"/>
		<path id="path" d="M206.091 165.959L212.011 173.666C214.121 176.607 216.877 179.721 220.126 181.303C222.78 182.58 225.995 184.945 226.336 193.297C230.538 190.201 233.26 185.217 233.26 179.602C233.26 170.211 225.655 162.59 216.247 162.59C212.437 162.59 208.915 163.85 206.091 165.959Z" fill="#144793" fill-opacity="1.000000" fill-rule="nonzero"/>
		<circle id="circle" cx="234.451172" cy="288.363281" r="11.908813" fill="#1349A6" fill-opacity="1.000000"/>
		<path id="path" d="M249.728 203.59C249.728 203.59 258.234 211.91 265.346 202.213C265.346 202.213 271.3 196.139 277.322 197.262C277.322 197.262 285.761 198.367 284.706 211.621C284.706 211.621 279.262 263.406 253.097 290.168C253.097 290.168 252.212 291.086 250.408 292.004C244.505 295.051 237.139 293.4 233.021 288.193C231.082 285.744 229.177 282.24 227.696 277.221C227.696 277.221 218.102 249.457 234.417 206.074C235.284 203.76 236.866 201.719 239.01 200.494C241.766 198.912 245.696 198.35 249.728 203.59Z" fill="#E3E2E2" fill-opacity="1.000000" fill-rule="nonzero"/>
		<path id="path" d="M255.223 219.242L255.155 219.6C253.368 228.344 253.691 237.445 256.55 245.9C256.567 245.969 256.601 246.037 256.618 246.104C256.618 246.104 265.243 271.301 240.133 292.957C243.468 293.928 247.142 293.672 250.392 292.021C252.178 291.086 253.079 290.168 253.079 290.168C279.245 263.406 284.688 211.619 284.688 211.619C285.743 198.367 277.306 197.262 277.306 197.262C271.283 196.121 265.328 202.213 265.328 202.213C264.835 202.893 264.325 203.488 263.814 203.998C259.596 208.234 256.414 213.389 255.223 219.242Z" fill="#FF754C" fill-opacity="1.000000" fill-rule="nonzero"/>
		<path id="path" d="M97.7207 303.947L98.3672 318.307C98.6055 323.768 100.103 328.904 102.553 333.346C105.921 339.469 111.093 344.268 117.336 346.75C118.936 347.396 120.603 347.873 122.321 348.197C125.23 348.742 127.867 349.1 129.942 349.336C131.916 349.559 133.89 349.678 135.88 349.711C136.306 349.729 136.748 349.729 137.189 349.729L143.179 349.729C143.825 349.729 144.472 349.729 145.101 349.711C146.887 349.66 148.674 349.541 150.426 349.336C152.484 349.1 155.138 348.742 158.047 348.197C159.323 347.959 160.565 347.635 161.773 347.211C167.711 345.186 172.78 341.104 176.387 335.727C179.67 330.793 181.695 324.771 182.001 318.307L182.647 303.947C168.663 307.299 154.424 308.982 140.185 308.982C125.944 308.982 111.722 307.299 97.7207 303.947Z" fill="#FFFFFF" fill-opacity="1.000000" fill-rule="nonzero"/>
		<path id="path" d="M97.7207 303.947L98.3672 318.307C98.6055 323.768 100.103 328.904 102.553 333.346C105.921 339.469 111.093 344.268 117.336 346.75C118.936 347.396 120.603 347.873 122.321 348.197C125.23 348.742 127.867 349.1 129.942 349.336C131.916 349.559 133.89 349.678 135.88 349.711C136.306 349.729 136.748 349.729 137.189 349.729L138.432 349.729C136.985 349.422 135.591 348.996 134.229 348.453C127.986 345.969 122.814 341.17 119.445 335.047C116.996 330.605 115.516 325.469 115.261 320.008L114.683 307.18C109 306.381 103.335 305.309 97.7207 303.947Z" fill="#E3E2E2" fill-opacity="1.000000" fill-rule="nonzero"/>
		<path id="path" d="M182.494 306.822L181.984 318.307C181.694 324.771 179.67 330.793 176.387 335.727C172.78 341.104 167.71 345.186 161.773 347.211C160.565 347.635 159.307 347.959 158.03 348.197C155.138 348.742 152.484 349.098 150.426 349.336C148.656 349.541 146.87 349.66 145.084 349.711C144.454 349.729 143.808 349.729 143.161 349.729L136.85 349.729C137.326 349.729 137.803 349.729 138.278 349.711C140.065 349.66 141.852 349.541 143.621 349.336C145.679 349.098 148.333 348.742 151.226 348.197C152.501 347.959 153.76 347.635 154.968 347.211C160.905 345.186 165.976 341.104 169.582 335.727C172.865 330.793 174.89 324.771 175.179 318.307L175.57 309.578C177.918 308.762 180.215 307.844 182.494 306.822Z" fill="#F2F3F4" fill-opacity="1.000000" fill-rule="nonzero"/>
		<path id="path" d="M141.204 315.701L131.864 314.902C119.19 313.814 106.72 310.479 95.1855 304.576C91.9531 302.926 88.6689 301.004 85.5049 298.826C76.0967 292.326 69.6152 281.729 67.3018 269.717C65.2266 258.881 63.0312 242.377 62.8613 220.449L62.8613 155.682L141.204 155.682L219.547 155.682L219.547 220.449C219.377 242.377 217.199 258.881 215.107 269.717C212.793 281.729 206.312 292.326 196.903 298.826C193.739 301.02 190.456 302.926 187.224 304.576C175.688 310.479 163.219 313.814 150.544 314.902L141.204 315.701Z" fill="#F2F3F4" fill-opacity="1.000000" fill-rule="nonzero"/>
		<path id="path" d="M219.548 156.498L219.548 220.432C219.378 242.361 217.183 258.863 215.107 269.699C212.794 281.711 206.312 292.309 196.904 298.809C193.739 301.004 190.456 302.908 187.224 304.576C185.658 305.375 184.094 306.123 182.494 306.822L182.63 303.945C182.018 304.1 181.405 304.236 180.793 304.371C183.906 302.756 187.054 300.918 190.099 298.809C199.507 292.309 205.988 281.711 208.303 269.699C210.378 258.863 212.572 242.361 212.742 220.432L212.742 157.842C214.886 157.484 217.183 157.043 219.548 156.498Z" fill="#E3E2E2" fill-opacity="1.000000" fill-rule="nonzero"/>
		<path id="path" d="M62.8447 152.688L62.8447 163.117L62.8789 199.744C64.002 197.176 66.2812 195.338 68.9697 195.32L69.1904 195.32C71.9297 195.355 74.1406 197.721 74.5664 200.662C74.9062 203.113 75.2979 205.598 75.7744 208.115C78.1904 221.367 82.2051 235.148 88.8906 246.971C88.5166 245.031 88.1426 243.041 87.7344 241.033C86.3906 234.383 85.3691 227.645 84.6553 220.873C83.957 214.086 83.6172 207.264 83.6172 200.441C83.6172 184.264 94.9131 170.977 109.188 170.312L197.67 166.281C197.67 166.281 207.469 166.639 219.514 163.406L219.514 152.977C207.469 156.209 197.67 155.852 197.67 155.852L85.7266 155.852C85.7266 155.852 75.3486 156.227 62.8447 152.688Z" fill="#E3E2E2" fill-opacity="1.000000" fill-rule="nonzero"/>
		<path id="Union" d="M92.6846 268.717C91.5791 262.83 90.4395 255.311 88.9082 246.975C98.9629 264.922 115.091 278.379 140.694 278.652L141.783 278.652C184.247 278.209 200.596 241.531 206.669 208.203C207.163 205.549 207.588 202.93 207.945 200.359C208.354 197.469 210.667 195.324 213.338 195.324C213.951 195.324 214.563 195.393 215.142 195.545C218.271 196.361 220.348 199.697 220.348 203.27L220.348 220.844C220.178 242.771 217.982 259.275 215.856 270.111C213.542 282.123 206.992 292.721 197.482 299.221C194.284 301.414 190.967 303.32 187.717 304.988C181.882 307.947 175.825 310.244 169.616 311.963C163.406 313.664 157.077 314.77 150.664 315.314C147.517 315.568 144.369 315.705 141.239 315.705L141.238 315.705C138.074 315.705 134.943 315.568 131.813 315.314C119.02 314.225 106.414 310.891 94.7598 304.988C91.5107 303.32 88.1934 301.414 84.9951 299.221C75.4844 292.721 68.9346 282.123 66.6211 270.111C64.4951 259.275 62.2998 242.771 62.1299 220.844L62.1299 203.354C62.1299 202.061 62.4189 200.836 62.8955 199.748C64.001 197.178 66.2812 195.342 68.9863 195.324L69.207 195.324C71.9463 195.357 74.1582 197.723 74.583 200.666C74.9229 203.115 75.3145 205.6 75.791 208.117C78.207 221.371 82.2217 235.15 88.9072 246.975C90.4385 255.311 91.5791 262.83 92.6846 268.717C94.9814 280.982 101.463 291.82 110.888 298.455C114.053 300.701 117.336 302.639 120.568 304.342C131.082 309.836 142.378 313.154 153.913 314.531C153.793 314.549 153.674 314.564 153.554 314.58C153.674 314.564 153.794 314.549 153.913 314.531C142.379 313.154 131.1 309.836 120.568 304.342C117.336 302.639 114.053 300.701 110.889 298.455C101.464 291.82 94.9814 280.982 92.6846 268.717Z" clip-rule="evenodd" fill="#1349A6" fill-opacity="1.000000" fill-rule="evenodd"/>
		<path id="path" d="M62.1299 203.352L62.1299 220.842C62.2998 242.77 64.4951 259.273 66.6211 270.109C68.9346 282.121 75.4844 292.719 84.9951 299.219C88.1934 301.412 91.5107 303.318 94.7598 304.986C106.414 310.889 119.02 314.223 131.813 315.312C134.943 315.566 138.074 315.703 141.238 315.703L150.578 314.887C151.701 314.785 152.807 314.684 153.913 314.529C142.378 313.152 131.082 309.834 120.568 304.34C117.336 302.637 114.053 300.699 110.888 298.453C101.463 291.818 94.9814 280.98 92.6846 268.715C91.5791 262.828 90.4385 255.309 88.9072 246.973C82.2217 235.148 78.207 221.369 75.791 208.115C75.3145 205.598 74.9229 203.113 74.583 200.664C74.1582 197.721 71.9463 195.355 69.207 195.322L68.9863 195.322C66.2812 195.34 64.001 197.176 62.8955 199.746C62.4189 200.834 62.1299 202.059 62.1299 203.352Z" fill="#144793" fill-opacity="1.000000" fill-rule="nonzero"/>
		<path id="path" d="M88.9082 246.973C90.4395 255.309 91.5791 262.828 92.6846 268.715C94.9814 280.98 101.464 291.818 110.889 298.453C114.053 300.699 117.336 302.637 120.568 304.34C131.1 309.834 142.379 313.152 153.913 314.529C152.808 314.682 151.702 314.785 150.579 314.887L141.239 315.703C144.369 315.703 147.517 315.566 150.664 315.312C157.078 314.768 163.406 313.662 169.616 311.961C175.825 310.242 181.882 307.945 187.718 304.986C190.967 303.318 194.284 301.412 197.482 299.219C206.992 292.719 213.542 282.121 215.856 270.109C217.982 259.273 220.178 242.77 220.348 220.842L220.348 203.268C220.348 199.695 218.271 196.359 215.142 195.543C214.563 195.391 213.951 195.322 213.338 195.322C210.667 195.322 208.354 197.467 207.945 200.357C207.588 202.928 207.163 205.547 206.669 208.201C200.596 241.529 184.247 278.207 141.783 278.65L140.694 278.65C115.091 278.377 98.9629 264.92 88.9082 246.973Z" fill="#1349A6" fill-opacity="1.000000" fill-rule="nonzero"/>
		<path id="logo" d="M186.356 204.322C186.526 203.42 186.611 202.502 186.611 201.549C186.611 195.799 183.277 190.814 178.429 188.432C178.445 188.244 178.463 188.041 178.463 187.854C178.463 184.35 175.621 181.508 172.117 181.508C168.612 181.508 165.771 184.35 165.771 187.854C165.771 188.006 165.771 188.16 165.788 188.312C160.804 190.645 157.35 195.713 157.35 201.566C157.35 202.467 157.435 203.352 157.588 204.203C155.563 205.258 154.186 207.385 154.186 209.816C154.186 213.322 157.026 216.162 160.531 216.162C162.232 216.162 163.798 215.482 164.938 214.377C167.03 215.533 169.429 216.197 171.98 216.197C174.532 216.197 176.812 215.566 178.854 214.479C179.977 215.533 181.491 216.162 183.158 216.162C186.662 216.162 189.504 213.322 189.504 209.816C189.504 207.486 188.245 205.41 186.356 204.322ZM172.134 183.006C174.788 183.006 176.948 185.148 176.966 187.785C176.966 188.33 176.88 188.891 176.71 189.367C176.063 191.289 174.261 192.668 172.134 192.668C170.007 192.668 168.136 191.238 167.523 189.283C167.388 188.822 167.303 188.348 167.303 187.836C167.388 185.234 169.514 183.006 172.134 183.006ZM160.565 214.631C157.895 214.631 155.733 212.471 155.733 209.799C155.733 208.082 156.636 206.566 157.996 205.717C158.438 205.428 158.932 205.223 159.459 205.104C159.816 205.02 160.191 204.969 160.582 204.969C163.253 204.969 165.414 207.129 165.414 209.799C165.414 210.736 165.142 211.604 164.683 212.334C164.41 212.795 164.053 213.186 163.645 213.525C162.811 214.223 161.722 214.631 160.565 214.631ZM172.015 214.598C169.837 214.598 167.778 214.053 165.976 213.117C166.57 212.148 166.911 211.008 166.911 209.799C166.911 206.295 164.07 203.453 160.565 203.453C160.072 203.453 159.578 203.506 159.119 203.625C159 202.943 158.949 202.246 158.949 201.549C158.949 196.461 161.875 192.039 166.128 189.895C166.979 192.396 169.344 194.182 172.134 194.182C174.924 194.182 177.203 192.447 178.088 189.998C182.223 192.191 185.047 196.547 185.047 201.531C185.047 202.264 184.979 202.979 184.876 203.676C184.332 203.521 183.771 203.438 183.175 203.438C179.671 203.438 176.829 206.277 176.829 209.783C176.829 211.041 177.203 212.215 177.833 213.203C176.081 214.088 174.107 214.598 172.015 214.598ZM183.192 214.631C182.086 214.631 181.065 214.258 180.249 213.627C179.823 213.305 179.466 212.912 179.16 212.471C178.649 211.705 178.36 210.787 178.36 209.799C178.36 207.129 180.521 204.969 183.192 204.969C183.668 204.969 184.128 205.037 184.553 205.172C185.08 205.326 185.557 205.564 185.982 205.869C187.224 206.738 188.023 208.184 188.023 209.816C188.023 212.488 185.863 214.631 183.192 214.631Z" fill="#1349A6" fill-opacity="1.000000" fill-rule="nonzero"/>
		<path id="logo" d="M186.611 201.549C186.611 195.799 183.277 190.814 178.429 188.432C178.445 188.244 178.463 188.041 178.463 187.854C178.463 184.35 175.621 181.508 172.117 181.508C168.612 181.508 165.771 184.35 165.771 187.854C165.771 188.006 165.771 188.16 165.788 188.312C160.804 190.645 157.35 195.713 157.35 201.566C157.35 202.467 157.435 203.352 157.588 204.203C155.563 205.258 154.186 207.385 154.186 209.816C154.186 213.322 157.026 216.162 160.531 216.162C162.232 216.162 163.798 215.482 164.938 214.377C167.03 215.533 169.429 216.197 171.98 216.197C174.532 216.197 176.812 215.566 178.854 214.479C179.977 215.533 181.491 216.162 183.158 216.162C186.662 216.162 189.504 213.322 189.504 209.816C189.504 207.486 188.245 205.41 186.356 204.322C186.526 203.42 186.611 202.502 186.611 201.549ZM176.966 187.785C176.966 188.33 176.88 188.891 176.71 189.367C176.063 191.289 174.261 192.668 172.134 192.668C170.007 192.668 168.136 191.238 167.523 189.283C167.388 188.822 167.303 188.348 167.303 187.836C167.388 185.234 169.514 183.006 172.134 183.006C174.788 183.006 176.948 185.148 176.966 187.785ZM155.733 209.799C155.733 208.082 156.636 206.566 157.996 205.717C158.438 205.428 158.932 205.223 159.459 205.104C159.816 205.02 160.191 204.969 160.582 204.969C163.253 204.969 165.414 207.129 165.414 209.799C165.414 210.736 165.142 211.604 164.683 212.334C164.41 212.795 164.053 213.186 163.645 213.525C162.811 214.223 161.722 214.631 160.565 214.631C157.895 214.631 155.733 212.471 155.733 209.799ZM165.976 213.117C166.57 212.148 166.911 211.008 166.911 209.799C166.911 206.295 164.07 203.453 160.565 203.453C160.072 203.453 159.578 203.506 159.119 203.625C159 202.943 158.949 202.246 158.949 201.549C158.949 196.461 161.875 192.039 166.128 189.895C166.979 192.396 169.344 194.182 172.134 194.182C174.924 194.182 177.203 192.447 178.088 189.998C182.223 192.191 185.047 196.547 185.047 201.531C185.047 202.264 184.979 202.979 184.876 203.676C184.332 203.521 183.771 203.438 183.175 203.438C179.671 203.438 176.829 206.277 176.829 209.783C176.829 211.041 177.203 212.215 177.833 213.203C176.081 214.088 174.107 214.598 172.015 214.598C169.837 214.598 167.778 214.053 165.976 213.117ZM180.249 213.627C179.823 213.305 179.466 212.912 179.16 212.471C178.649 211.705 178.36 210.787 178.36 209.799C178.36 207.129 180.521 204.969 183.192 204.969C183.668 204.969 184.128 205.037 184.553 205.172C185.08 205.326 185.557 205.564 185.982 205.869C187.224 206.738 188.023 208.184 188.023 209.816C188.023 212.488 185.863 214.631 183.192 214.631C182.086 214.631 181.065 214.258 180.249 213.627Z" stroke="#1349A6" stroke-opacity="1.000000" stroke-width="0.990000"/>
		<rect id="rect" x="97.975586" y="209.628906" rx="1.480000" width="167.029617" height="44.453907" fill="#1349A6" fill-opacity="1.000000"/>
		<ellipse id="ellipse" cx="231.643555" cy="232.136719" rx="10.922080" ry="11.058184" fill="#FFFFFF" fill-opacity="1.000000"/>
		<rect id="rect-2" x="246.955078" y="214.919922" width="2.364749" height="34.433491" fill="#FFFFFF" fill-opacity="1.000000"/>
		<rect id="rect-3" x="251.632812" y="214.919922" width="2.364749" height="34.433491" fill="#FFFFFF" fill-opacity="1.000000"/>
		<rect id="rect-4" x="118.390625" y="209.628906" width="2.994220" height="44.453907" fill="#FFFFFF" fill-opacity="1.000000"/>
		<rect id="rect-5" x="108.285156" y="209.628906" width="2.994220" height="44.453907" fill="#FFFFFF" fill-opacity="1.000000"/>
		<rect id="rect-6" x="113.406250" y="209.628906" width="2.994220" height="44.453907" fill="#FFFFFF" fill-opacity="1.000000"/>
		<path id="path" d="M262.538 209.629L260.974 209.629L260.974 241.102C260.974 242.498 259.867 243.604 258.507 243.604L97.9756 243.604L97.9756 251.564C97.9756 252.943 99.0811 254.066 100.442 254.066L262.521 254.066C263.883 254.066 264.988 252.943 264.988 251.564L264.988 212.129C264.988 210.752 263.899 209.629 262.538 209.629Z" fill="#0E3F87" fill-opacity="1.000000" fill-rule="nonzero"/>
		<path id="path-2" d="M245.951 209.629L100.459 209.629C99.0977 209.629 97.9922 210.752 97.9922 212.129L97.9922 216.621C126.233 215.293 245.951 209.629 245.951 209.629Z" fill="#1860C9" fill-opacity="1.000000" fill-rule="nonzero"/>
		<rect id="rect-7" x="110.820312" y="257.042969" width="140.183762" height="32.136784" fill="#F4F4F4" fill-opacity="1.000000"/>
		<g opacity="0.540000">
			<rect id="rect-8" x="143.092773" y="266.349609" width="99.319511" height="0.646487" fill="#D4D3D3" fill-opacity="1.000000"/>
		</g>
		<g opacity="0.540000">
			<rect id="rect-9" x="120.568359" y="275.707031" width="122.966988" height="0.646487" fill="#D4D3D3" fill-opacity="1.000000"/>
		</g>
		<g opacity="0.540000">
			<rect id="rect-10" x="134.433594" y="279.244141" width="99.319496" height="0.646487" fill="#D4D3D3" fill-opacity="1.000000"/>
		</g>
		<g opacity="0.540000">
			<rect id="rect-11" x="175.195312" y="271.486328" width="54.304199" height="0.646487" fill="#D4D3D3" fill-opacity="1.000000"/>
		</g>
		<g opacity="0.540000">
			<rect id="rect-12" x="154.117188" y="271.486328" width="16.042873" height="0.646487" fill="#F8F8F8" fill-opacity="1.000000"/>
		</g>
		<g opacity="0.240000">
			<path id="path-3" d="M251.021 257.061L110.837 257.061L110.837 264.666C116.639 264.154 122.49 264.461 128.309 264.785C169.326 267.148 210.259 270.893 251.021 276.012L251.021 257.061Z" fill="#D4D3D3" fill-opacity="1.000000" fill-rule="nonzero"/>
		</g>
		<rect id="rect-13" x="108.505859" y="254.082031" rx="0.890000" width="144.079636" height="5.920374" fill="#FFA800" fill-opacity="1.000000"/>
		<rect id="rect-14" x="108.505859" y="286.220703" rx="0.890000" width="144.079636" height="5.920374" fill="#FFA800" fill-opacity="1.000000"/>
		<g opacity="0.540000">
			<path id="path-4" d="M251.412 254.117L251.412 256.635C251.412 257.469 250.748 258.131 249.932 258.131L108.812 258.131C108.71 258.131 108.608 258.131 108.506 258.098L108.506 258.488C108.506 259.322 109.169 259.986 109.986 259.986L251.105 259.986C251.922 259.986 252.586 259.305 252.586 258.488L252.586 255.562C252.586 254.848 252.092 254.252 251.412 254.117Z" fill="#AF7911" fill-opacity="1.000000" fill-rule="nonzero"/>
		</g>
		<path id="path-5" d="M251.412 286.254L251.412 288.771C251.412 289.605 250.748 290.268 249.932 290.268L108.812 290.268C108.71 290.268 108.608 290.268 108.506 290.234L108.506 290.625C108.506 291.459 109.169 292.123 109.986 292.123L251.105 292.123C251.922 292.123 252.586 291.441 252.586 290.625L252.586 287.699C252.586 286.984 252.092 286.389 251.412 286.254Z" fill="#AF7911" fill-opacity="1.000000" fill-rule="nonzero"/>
		<path id="path-6" d="M113.56 183.242L252.467 183.242L252.467 208.029L113.56 208.029C107.962 208.029 103.42 203.436 103.42 197.787L103.42 193.5C103.42 187.854 107.962 183.242 113.56 183.242Z" fill="#FFFFFF" fill-opacity="1.000000" fill-rule="nonzero"/>
		<g opacity="0.540000">
			<path id="path-7" d="M136.322 188.021C174.975 190.607 213.95 188.141 252.467 192.07L252.467 183.225L113.44 183.225C110.395 183.225 107.689 184.604 105.853 186.764C116.009 186.32 126.166 187.359 136.322 188.021Z" fill="#F5F4F4" fill-opacity="1.000000" fill-rule="nonzero"/>
		</g>
		<path id="path-8" d="M103.42 195.629C103.42 200.289 105.955 204.338 109.715 206.465C110.77 203.658 111.365 200.578 111.365 197.33C111.365 193.025 110.327 189.01 108.541 185.557C105.444 187.803 103.42 191.477 103.42 195.629Z" fill="#84570F" fill-opacity="1.000000" fill-rule="nonzero"/>
		<path id="path-9" d="M255.291 209.867L112.3 209.867C105.239 209.867 99.5234 204.084 99.5234 196.938L99.5234 193.264C99.5234 186.119 105.239 180.334 112.3 180.334L255.291 180.334C256.431 180.334 257.315 181.355 257.146 182.512L256.855 184.52C256.72 185.455 255.938 186.152 255.002 186.152L112.283 186.152C108.404 186.152 105.257 189.334 105.257 193.264L105.257 196.938C105.257 200.869 108.404 204.049 112.283 204.049L255.002 204.049C255.938 204.049 256.736 204.746 256.855 205.684L257.146 207.689C257.315 208.83 256.431 209.867 255.291 209.867Z" fill="#FFA800" fill-opacity="1.000000" fill-rule="nonzero"/>
		<path id="path-10" d="M255.529 182.527C255.393 183.463 254.61 184.16 253.675 184.16L110.956 184.16C107.077 184.16 103.93 187.342 103.93 191.271L103.93 194.947C103.93 196.869 104.679 198.588 105.886 199.863C105.478 198.961 105.257 197.975 105.257 196.92L105.257 193.246C105.257 189.316 108.404 186.135 112.283 186.135L255.002 186.135C255.938 186.135 256.736 185.438 256.855 184.502L257.146 182.494C257.281 181.541 256.686 180.674 255.818 180.418L255.529 182.527Z" fill="#AF7911" fill-opacity="1.000000" fill-rule="nonzero"/>
		<path id="path-11" d="M256.856 205.682C256.754 204.951 256.244 204.373 255.598 204.15L255.818 205.717C255.988 206.855 255.104 207.895 253.964 207.895L110.974 207.895C107.01 207.895 103.454 206.057 101.123 203.182C103.301 207.18 107.485 209.867 112.301 209.867L255.291 209.867C256.431 209.867 257.315 208.848 257.146 207.689L256.856 205.682Z" fill="#AF7911" fill-opacity="1.000000" fill-rule="nonzero"/>
		<g opacity="0.540000">
			<rect id="rect-15" x="124.073242" y="190.693359" width="112.010872" height="0.697522" fill="#D4D3D3" fill-opacity="1.000000"/>
		</g>
		<g opacity="0.540000">
			<rect id="rect-16" x="124.073242" y="198.673828" width="112.010872" height="0.697522" fill="#D4D3D3" fill-opacity="1.000000"/>
		</g>
		<g opacity="0.540000">
			<rect id="rect-17" x="134.059570" y="193.109375" width="92.038094" height="0.697522" fill="#D4D3D3" fill-opacity="1.000000"/>
		</g>
		<g opacity="0.540000">
			<rect id="rect-18" x="135.896484" y="196.001953" width="86.764221" height="0.697522" fill="#D4D3D3" fill-opacity="1.000000"/>
		</g>
		<rect id="rect" x="230.962891" y="282.476562" rx="2.000000" width="6.805036" height="16.723379" fill="#1349A6" fill-opacity="1.000000"/>
		<rect id="rect" x="219.182617" y="287.910156" rx="2.000000" width="6.805036" height="11.908813" transform="rotate(-30 219.182617 287.910156)" fill="#1349A6" fill-opacity="1.000000"/>
		<rect id="rect" x="243.298828" y="285.009766" rx="2.000000" width="6.805036" height="11.908813" transform="rotate(30 243.298828 285.009766)" fill="#1349A6" fill-opacity="1.000000"/>
		<rect id="rect" x="74.962891" y="225.945312" width="13.610072" height="40.830215" transform="rotate(163.43 74.962891 225.945312)" fill="#0A1B35" fill-opacity="1.000000"/>
		<path id="path" d="M74.3281 182.203C73.1885 189.859 66.7578 195.883 59.0508 196.545C54.6787 196.92 50.6465 195.66 47.4482 193.297C47.7881 184.943 50.7998 181.625 53.4541 180.35C56.7031 178.768 59.6631 176.607 61.7725 173.664L67.6934 165.957C72.4736 169.529 75.2979 175.586 74.3281 182.203Z" fill="#B8B6B6" fill-opacity="1.000000" fill-rule="nonzero"/>
		<path id="path" d="M67.6592 165.959L61.7393 173.666C59.6289 176.607 56.873 179.721 53.624 181.303C50.9697 182.58 47.7549 184.945 47.4141 193.297C43.2119 190.201 40.4902 185.217 40.4902 179.602C40.4902 170.211 48.0947 162.59 57.5029 162.59C61.3135 162.59 64.835 163.85 67.6592 165.959Z" fill="#1349A6" fill-opacity="1.000000" fill-rule="nonzero"/>
		<circle id="circle" cx="116.570312" cy="285.080078" r="11.908813" fill="#1E60C1" fill-opacity="1.000000"/>
		<path id="path" d="M71.1133 209.137C71.1133 209.137 67.166 220.365 56.499 214.818C56.499 214.818 48.4688 211.994 43.5693 215.686C43.5693 215.686 36.4922 220.416 43.2969 231.83C43.2969 231.83 71.0791 275.877 106.396 288.295C106.396 288.295 107.604 288.721 109.612 288.756C116.247 288.857 122.134 284.145 123.512 277.646C124.158 274.584 124.328 270.604 123.443 265.447C123.443 265.447 119.769 236.305 85.9648 204.611C84.1611 202.926 81.8477 201.787 79.3809 201.633C76.2168 201.43 72.4062 202.637 71.1133 209.137Z" fill="#FFFFFF" fill-opacity="1.000000" fill-rule="nonzero"/>
		<path id="path" d="M73.0859 225.621L73.3066 225.91C78.7852 232.953 82.5107 241.273 83.6846 250.119C83.6846 250.188 83.7012 250.256 83.7188 250.34C83.7188 250.34 87.1211 276.744 119.224 285.062C116.672 287.41 113.253 288.807 109.611 288.754C107.587 288.703 106.379 288.295 106.379 288.295C71.0781 275.877 43.2793 231.83 43.2793 231.83C36.4746 220.416 43.5518 215.686 43.5518 215.686C48.4512 211.994 56.4814 214.818 56.4814 214.818C57.2305 215.209 57.9443 215.516 58.6416 215.754C64.3076 217.693 69.4111 220.908 73.0859 225.621Z" fill="#FF754C" fill-opacity="1.000000" fill-rule="nonzero"/>
		<path id="path" d="M118.552 294.598L120.851 288.193L128.856 291.066C130.618 291.697 131.542 293.656 130.91 295.418C130.278 297.18 128.319 298.104 126.559 297.471L118.552 294.598Z" fill="#1E60C1" fill-opacity="1.000000" fill-rule="nonzero"/>
		<path id="path" d="M123.673 285.287L124.303 278.512L132.772 279.299C134.636 279.471 136.019 281.139 135.846 283.002C135.672 284.865 134.006 286.248 132.143 286.074L123.673 285.287Z" fill="#1E60C1" fill-opacity="1.000000" fill-rule="nonzero"/>
		<path id="path" d="M267.795 103.691C267.778 104.525 267.744 105.359 267.693 106.193C267.37 112.486 266.281 118.766 263.627 124.549C254.883 143.654 236.611 152.246 221.249 156.09C207.4 159.561 195.917 159.188 195.917 159.188L71.9121 159.188C71.9121 159.188 61.0586 159.545 47.7207 156.379C32.1367 152.672 13.168 144.131 4.20215 124.549C1.56543 118.766 0.476562 112.504 0.135742 106.209C0.0849609 105.375 0 101.973 0 101.072C0 85.6758 3.43652 61.959 24.6855 31.5918C24.7197 31.541 24.7871 31.4395 24.8213 31.3887C45.2539 0.96875 80.0273 0 80.0273 0L187.751 0C187.751 0 222.524 0.96875 242.957 31.3887C265.584 63.6602 268.17 88.3965 267.795 103.691Z" fill="#FFFFFF" fill-opacity="1.000000" fill-rule="nonzero"/>
		<path id="path" d="M267.796 103.691C267.778 104.525 267.744 105.359 267.693 106.193C267.37 112.486 266.281 118.766 263.628 124.549C254.883 143.654 236.611 152.246 221.249 156.09C220.671 156.227 220.109 156.363 219.548 156.498L215.244 157.486L212.182 157.979C227.17 153.93 248.401 142.957 256.822 124.549C259.477 118.766 260.565 112.486 260.889 106.193C260.939 105.359 260.974 104.525 260.99 103.691C261.365 88.3965 258.83 63.6602 236.203 31.3887C215.771 0.96875 180.946 0 180.946 0L187.751 0C187.751 0 222.525 0.96875 242.957 31.3887C265.584 63.6602 268.17 88.3965 267.796 103.691Z" fill="#F2F3F4" fill-opacity="1.000000" fill-rule="nonzero"/>
		<path id="path" d="M36.6113 31.5918C57.043 1.17383 102.144 0 102.144 0L80.0273 0C80.0273 0 45.2539 0.96875 24.8213 31.3887C24.8047 31.4043 24.7021 31.5762 24.6855 31.5918C3.43652 61.959 0 85.6758 0 101.072C0 101.973 0.0849609 105.375 0.135742 106.209C0.476562 112.504 1.56543 118.766 4.20215 124.549C13.168 144.131 32.1367 152.672 47.7207 156.379C61.0586 159.545 71.9121 159.188 71.9121 159.188L91.5615 159.188C87.6152 159.102 71.6572 159.748 62.1299 157.486C46.5469 153.777 25.0762 144.131 16.1113 124.549C13.4736 118.766 12.3848 112.504 12.0449 106.209C11.9941 105.375 11.9092 101.973 11.9092 101.072C11.9092 85.6758 15.3623 61.959 36.6113 31.5918Z" fill="#E3E2E2" fill-opacity="1.000000" fill-rule="nonzero"/>
		<path id="path" d="M155.699 0L155.495 1.53125C154.509 8.72656 154.509 16.043 155.495 23.2383L155.699 24.7695L114.869 24.7695L115.073 23.2383C116.06 16.043 116.06 8.72656 115.073 1.53125L114.869 0L155.699 0Z" fill="#FF754C" fill-opacity="1.000000" fill-rule="nonzero"/>
		<path id="path" d="M257.588 94.8457C257.554 91.5098 256.091 28.2754 194.794 24.8555C192.889 24.7031 185.233 24.7871 182.801 24.7871L108.2 24.7871C105.768 24.7871 98.1113 24.7031 96.2061 24.8555C34.9102 28.2754 33.4473 91.5098 33.4131 94.8457C33.3281 95.8828 33.2598 96.9199 33.2598 97.959C33.2598 108.812 38.1768 121.674 59.9189 125.535C61.416 125.809 62.9131 125.961 64.4268 126.08C74.8555 126.965 118.68 127.697 145.509 128.344C172.338 127.697 216.162 126.965 226.591 126.08C228.104 125.943 229.603 125.791 231.1 125.535C252.841 121.656 257.758 108.795 257.758 97.959C257.758 96.9199 257.689 95.8652 257.588 94.8457Z" fill="#000000" fill-opacity="1.000000" fill-rule="nonzero"/>
		<path id="path" d="M257.74 97.9746C257.74 98.5703 257.724 99.166 257.689 99.7617C257.672 99.252 257.621 98.7578 257.587 98.248C257.553 94.9141 256.09 31.6953 194.794 28.2578C192.889 28.1055 185.232 28.1895 182.8 28.1895L108.183 28.1895C105.75 28.1895 98.0938 28.1055 96.1885 28.2578C34.8926 31.6953 33.4297 94.9141 33.3955 98.248C33.3613 98.7578 33.3105 99.252 33.293 99.7617C33.2588 99.166 33.2422 98.5703 33.2422 97.9746C33.2422 96.9199 33.3105 95.8828 33.3955 94.8457C33.4297 91.5098 34.8926 28.291 96.1885 24.8555C98.0938 24.7031 105.75 24.7871 108.183 24.7871L182.8 24.7871C185.232 24.7871 192.889 24.7031 194.794 24.8555C256.09 28.291 257.553 91.5098 257.587 94.8457C257.672 95.8828 257.74 96.9199 257.74 97.9746Z" fill="#545454" fill-opacity="1.000000" fill-rule="nonzero"/>
		<path id="path" d="" fill="#438CED" fill-opacity="1.000000" fill-rule="nonzero"/>
		<path id="path" d="" fill="#438CED" fill-opacity="1.000000" fill-rule="nonzero"/>
		<rect id="rect" x="111.466797" y="52.007812" rx="4.000000" width="13.610072" height="23.817627" fill="#438CED" fill-opacity="1.000000"/>
		<rect id="rect" x="193.126953" y="52.007812" rx="4.000000" width="13.610072" height="23.817627" fill="#438CED" fill-opacity="1.000000"/>
		<path id="path" d="M179.856 99.0684L179.869 99.043C181.006 98.6895 182.177 99.3027 182.531 100.439C182.887 101.574 182.272 102.746 181.137 103.102L181.111 103.088L179.856 99.0684ZM149.534 103.09L149.509 103.104C148.372 102.752 147.754 101.582 148.105 100.445C148.456 99.3086 149.626 98.6914 150.763 99.041L150.775 99.0664L149.534 103.09Z" fill="#000000" fill-opacity="0" fill-rule="nonzero"/>
		<path id="path" d="M180.503 101.072C170.482 104.203 160.275 104.203 150.136 101.072" stroke="#438CED" stroke-opacity="1.000000" stroke-width="4.250000" stroke-linecap="round"/>
		<path id="glasss" d="M199.847 36.748C184.399 36.748 171.827 49.3203 171.827 64.7676C171.827 65.0059 171.861 65.2266 171.861 65.4648L146.343 65.4648C146.343 65.2266 146.376 65.0059 146.376 64.7676C146.376 49.3203 133.804 36.748 118.356 36.748C102.909 36.748 90.3369 49.3203 90.3369 64.7676C90.3369 80.2148 102.909 92.7871 118.356 92.7871C131.916 92.7871 143.246 83.1074 145.832 70.2793L172.389 70.2793C174.958 83.0898 186.288 92.7871 199.864 92.7871C215.312 92.7871 227.884 80.2148 227.884 64.7676C227.884 49.3203 215.294 36.748 199.847 36.748ZM118.356 87.9551C105.563 87.9551 95.1689 77.5449 95.1689 64.7676C95.1689 51.9922 105.58 41.5801 118.356 41.5801C131.133 41.5801 141.562 51.9922 141.562 64.7676C141.562 77.5449 131.15 87.9551 118.356 87.9551ZM199.847 87.9551C187.054 87.9551 176.642 77.5449 176.642 64.7676C176.642 51.9922 187.054 41.5801 199.847 41.5801C212.641 41.5801 223.035 51.9922 223.035 64.7676C223.035 77.5449 212.623 87.9551 199.847 87.9551Z" fill="#FFFFFF" fill-opacity="1.000000" fill-rule="nonzero"/>
	</g>
</svg>
