<!-- Generated by IcoMoon.io -->
<svg version="1.1" xmlns="http://www.w3.org/2000/svg" width="38" height="32" viewBox="0 0 38 32" fill="currentColor" stroke="currentColor">
<title>camera</title>
<path fill="none" stroke-linejoin="miter" stroke-linecap="butt" stroke-miterlimit="4" stroke-width="2.3415"  d="M3.122 13.659h21.073c1.078 0 1.951 0.874 1.951 1.951v13.268c0 1.078-0.874 1.951-1.951 1.951h-21.073c-1.078 0-1.951-0.874-1.951-1.951v-13.268c0-1.078 0.874-1.951 1.951-1.951z"></path>
<path fill="none" stroke-linejoin="miter" stroke-linecap="butt" stroke-miterlimit="4" stroke-width="2.3415"  d="M3.122 13.659h21.073c1.078 0 1.951 0.874 1.951 1.951v13.268c0 1.078-0.874 1.951-1.951 1.951h-21.073c-1.078 0-1.951-0.874-1.951-1.951v-13.268c0-1.078 0.874-1.951 1.951-1.951z"></path>
<path stroke="none" d="M9.756 19.902h7.805c1.293 0 2.341 1.048 2.341 2.341s-1.048 2.341-2.341 2.341h-7.805c-1.293 0-2.341-1.048-2.341-2.341s1.048-2.341 2.341-2.341z"></path>
<path fill="none" stroke-linejoin="miter" stroke-linecap="butt" stroke-miterlimit="4" stroke-width="2.3415" d="M9.756 19.902h7.805c1.293 0 2.341 1.048 2.341 2.341s-1.048 2.341-2.341 2.341h-7.805c-1.293 0-2.341-1.048-2.341-2.341s1.048-2.341 2.341-2.341z"></path>
<path fill="none" stroke-linejoin="miter" stroke-linecap="butt" stroke-miterlimit="4" stroke-width="2.3415" d="M9.756 19.902h7.805c1.293 0 2.341 1.048 2.341 2.341s-1.048 2.341-2.341 2.341h-7.805c-1.293 0-2.341-1.048-2.341-2.341s1.048-2.341 2.341-2.341z"></path>
<path fill="none" stroke-linejoin="miter" stroke-linecap="butt" stroke-miterlimit="4" stroke-width="2.3415" d="M24.976 7.024c0 3.017-2.446 5.463-5.463 5.463s-5.463-2.446-5.463-5.463c0-3.017 2.446-5.463 5.463-5.463s5.463 2.446 5.463 5.463z"></path>
<path fill="none" stroke-linejoin="miter" stroke-linecap="butt" stroke-miterlimit="4" stroke-width="2.3415" d="M24.976 7.024c0 3.017-2.446 5.463-5.463 5.463s-5.463-2.446-5.463-5.463c0-3.017 2.446-5.463 5.463-5.463s5.463 2.446 5.463 5.463z"></path>
<path fill="none" stroke-linejoin="miter" stroke-linecap="butt" stroke-miterlimit="4" stroke-width="2.3415" d="M12.488 7.805c0 2.586-2.097 4.683-4.683 4.683s-4.683-2.097-4.683-4.683c0-2.586 2.097-4.683 4.683-4.683s4.683 2.097 4.683 4.683z"></path>
<path fill="none" stroke-linejoin="miter" stroke-linecap="butt" stroke-miterlimit="4" stroke-width="2.3415" d="M12.488 7.805c0 2.586-2.097 4.683-4.683 4.683s-4.683-2.097-4.683-4.683c0-2.586 2.097-4.683 4.683-4.683s4.683 2.097 4.683 4.683z"></path>
<path fill="none" stroke-linejoin="miter" stroke-linecap="butt" stroke-miterlimit="4" stroke-width="2.3415" d="M33.756 27.5l-6.927-5.646 6.927-5.646v11.293z"></path>
<path fill="none" stroke-linejoin="miter" stroke-linecap="butt" stroke-miterlimit="4" stroke-width="2.3415" d="M33.756 27.5l-6.927-5.646 6.927-5.646v11.293z"></path>
</svg>
