<!-- Generated by IcoMoon.io -->
<svg version="1.1" xmlns="http://www.w3.org/2000/svg" width="32" height="32" viewBox="0 0 32 32">
<title>color-circle</title>
<path fill="#ff7272" d="M31.778 16.449c-0.141 4.040-1.816 7.875-4.685 10.723l-3.36-3.384c2.008-1.994 3.181-4.678 3.279-7.506l4.765 0.166z"></path>
<path fill="#72c4ff" d="M25.459 28.588c-3.229 2.433-7.263 3.544-11.282 3.107l0.515-4.74c2.813 0.306 5.637-0.472 7.897-2.175l2.87 3.808z"></path>
<path fill="#6ad274" d="M11.247 31.094c-3.866-1.182-7.136-3.793-9.145-7.301l4.138-2.37c1.406 2.456 3.696 4.283 6.402 5.11l-1.394 4.56z"></path>
<path fill="#32e023" opacity="0.7" d="M0.959 21.33c-1.383-3.799-1.266-7.982 0.327-11.697l4.383 1.878c-1.115 2.601-1.197 5.529-0.229 8.188l-4.481 1.631z"></path>
<path fill="#3641f9" opacity="0.7" d="M2.129 7.947c2.021-3.501 5.301-6.1 9.171-7.269l1.378 4.565c-2.709 0.818-5.005 2.637-6.42 5.088l-4.129-2.384z"></path>
<path fill="#ffcd4d" opacity="0.7" d="M13.134 0.453c2.138-0.377 4.331-0.312 6.443 0.191s4.099 1.434 5.838 2.734c1.739 1.301 3.192 2.944 4.271 4.828s1.761 3.969 2.003 6.127l-4.739 0.532c-0.17-1.51-0.647-2.97-1.402-4.289s-1.773-2.469-2.99-3.38-2.608-1.562-4.086-1.914c-1.479-0.352-3.014-0.398-4.51-0.134l-0.828-4.696z"></path>
</svg>
