<!-- Generated by IcoMoon.io -->
<svg version="1.1" xmlns="http://www.w3.org/2000/svg" width="32" height="32" viewBox="0 0 32 32" stroke="none" fill="currentColor">
<title>email-conf</title>
<path d="M27.766 2.942h-23.532c-2.335 0-4.234 1.899-4.234 4.234v17.649c0 2.335 1.899 4.234 4.234 4.234h23.532c2.335 0 4.234-1.899 4.234-4.234v-17.649c0-2.335-1.899-4.234-4.234-4.234zM29.415 24.824c0 0.909-0.74 1.649-1.649 1.649h-23.532c-0.909 0-1.649-0.74-1.649-1.649v-17.649c0-0.909 0.74-1.649 1.649-1.649h23.532c0.909 0 1.649 0.74 1.649 1.649v17.649z"></path>
<path d="M31.766 6.434c-0.409-0.585-1.215-0.727-1.8-0.318l-13.966 9.776-13.966-9.776c-0.585-0.409-1.391-0.267-1.8 0.318s-0.267 1.391 0.318 1.8l14.707 10.295c0.223 0.156 0.482 0.234 0.741 0.234s0.519-0.078 0.741-0.234l14.707-10.295c0.585-0.409 0.727-1.215 0.318-1.8z"></path>
</svg>
