<!-- Generated by IcoMoon.io -->
<svg version="1.1" xmlns="http://www.w3.org/2000/svg" width="32" height="32" viewBox="0 0 32 32" stroke="currentColor" fill="currentColor">
<title>exit</title>
<path fill="none" stroke-linejoin="round" stroke-linecap="round" stroke-miterlimit="4" stroke-width="2" d="M15.92 16h13"></path>
<path stroke="none" d="M23.93 25v3h-16v-24h16v3h2v-4c0-0.552-0.448-1-1-1v0h-18c-0.552 0-1 0.448-1 1v0 26c0 0.552 0.448 1 1 1v0h18c0.552 0 1-0.448 1-1v0-4z"></path>
<path fill="none" stroke-linejoin="round" stroke-linecap="round" stroke-miterlimit="4" stroke-width="2" d="M28.92 16l-4 4"></path>
<path fill="none" stroke-linejoin="round" stroke-linecap="round" stroke-miterlimit="4" stroke-width="2" d="M28.92 16l-4-4"></path>
<path fill="none" stroke-linejoin="round" stroke-linecap="round" stroke-miterlimit="4" stroke-width="2" d="M24.92 8.090v-2"></path>
<path fill="none" stroke-linejoin="round" stroke-linecap="round" stroke-miterlimit="4" stroke-width="2" d="M24.92 26v-2"></path>
</svg>
