<svg width="42" height="30" viewBox="0 0 42 30" fill="none" xmlns="http://www.w3.org/2000/svg">
<path d="M41 8.27273L34.3333 1C34.1358 1 33.9337 1 33.7273 1M41 8.27273V25.2424C41 26.2525 40.5152 28.2727 38.5758 28.2727C36.6364 28.2727 25.2424 28.2727 19.7879 28.2727H18.5758H7.06061H4.0303C3.0202 28.0707 1 27.1818 1 25.2424V5.24242C1 3.82828 1.60606 1 4.0303 1C6.40187 1 24.4337 1 33.7273 1M41 8.27273C39.7879 8.27273 37.1212 8.27273 36.1515 8.27273C35.3434 8.07071 33.7273 7.30303 33.7273 5.84848C33.7273 4.39394 33.7273 2.0101 33.7273 1M10.697 5.24242H24.6364M10.697 12.5152H34.3333M10.697 17.9697H34.3333M27.6667 24.0303H34.3333" stroke="url(#paint0_linear_703_5665)" stroke-width="2" stroke-linecap="round"/>
<defs>
<linearGradient id="paint0_linear_703_5665" x1="41" y1="-3.24242" x2="3.42424" y2="42.8182" gradientUnits="userSpaceOnUse">
<stop stop-color="#FF0000"/>
<stop offset="1" stop-color="#FDB804"/>
</linearGradient>
</defs>
</svg>
