<svg width="158" height="123" viewBox="0 0 158 123" fill="none" xmlns="http://www.w3.org/2000/svg">
<path d="M4 115.241V93.4532C4 80.5709 14.4431 70.1278 27.3254 70.1278V70.1278C40.2076 70.1278 50.6507 80.5709 50.6507 93.4532V119V74.8442C50.6507 59.7819 62.8611 47.5714 77.9234 47.5714V47.5714C92.9858 47.5714 105.196 59.7818 105.196 74.8441V119V94.5297C105.196 81.0529 116.121 70.1278 129.598 70.1278V70.1278C143.075 70.1278 154 81.0529 154 94.5297V115.241M142.571 39.7143V39.7143C142.571 46.4206 137.135 51.8571 130.429 51.8571H129.714C123.008 51.8571 117.571 46.4206 117.571 39.7143V39.7143C117.571 33.008 123.008 27.5714 129.714 27.5714H130.429C137.135 27.5714 142.571 33.008 142.571 39.7143ZM91.8571 17.5714V17.5714C91.8571 25.0667 85.781 31.1429 78.2857 31.1429H77.5714C70.0761 31.1429 64 25.0667 64 17.5714V17.5714C64 10.0761 70.0762 4 77.5714 4H78.2857C85.781 4 91.8571 10.0761 91.8571 17.5714ZM14 39.7143V39.7143C14 33.008 19.4365 27.5714 26.1429 27.5714H26.8571C33.5635 27.5714 39 33.008 39 39.7143V39.7143C39 46.4206 33.5635 51.8571 26.8571 51.8571H26.1429C19.4365 51.8571 14 46.4206 14 39.7143Z" stroke="#FF754C" stroke-width="8" stroke-linecap="round" stroke-linejoin="round"/>
</svg>
