<svg width="24" height="25" viewBox="0 0 24 25" fill="none" xmlns="http://www.w3.org/2000/svg">
<path d="M15.755 15.1562H14.965L14.685 14.8862C15.665 13.7462 16.255 12.2662 16.255 10.6562C16.255 7.06625 13.345 4.15625 9.755 4.15625C6.165 4.15625 3.255 7.06625 3.255 10.6562C3.255 14.2463 6.165 17.1562 9.755 17.1562C11.365 17.1562 12.845 16.5662 13.985 15.5863L14.255 15.8663V16.6562L19.255 21.6462L20.745 20.1562L15.755 15.1562ZM9.755 15.1562C7.265 15.1562 5.255 13.1462 5.255 10.6562C5.255 8.16625 7.265 6.15625 9.755 6.15625C12.245 6.15625 14.255 8.16625 14.255 10.6562C14.255 13.1462 12.245 15.1562 9.755 15.1562Z" fill="black" fill-opacity="0.56"/>
</svg>
