<svg width="83" height="72" viewBox="0 0 83 72" fill="none" xmlns="http://www.w3.org/2000/svg">
<path d="M62 70.5H51.5M19.5 70.5H31M31 70.5V57M31 70.5H51.5M31 57H7.5C5.66667 57.1667 2 55.5 2 47.5C2 39.5 2 17.1667 2 7C2.16667 5.16667 3.5 1.5 7.5 1.5C11.5 1.5 54.1667 1.5 75 1.5C76.8333 1.5 80.5 2.6 80.5 7C80.5 11.4 80.5 35.8333 80.5 47.5C80.6667 50.6667 80 57 76 57C73.6037 57 62.7137 57 51.5 57M31 57C36.3457 57 43.9953 57 51.5 57M51.5 57V70.5M12.5 35.5H50M50 41H12.5M54.5 35.5H70.5M54.5 41H70.5M7.5 8V50.5H74V8H7.5ZM12.5 17V30.5H27.5V17H12.5ZM33.5 17V30.5H50V17H33.5ZM54.5 17V30.5H69.5V17H54.5Z" stroke="white" stroke-width="3" stroke-linecap="round" stroke-linejoin="round"/>
</svg>
