<svg width="114" height="101" viewBox="0 0 114 101" fill="none" xmlns="http://www.w3.org/2000/svg">
<path d="M86.0519 98.6596H71.3428M26.5151 98.6596H42.6251M42.6251 98.6596V79.748M42.6251 98.6596H71.3428M42.6251 79.748H9.70476C7.1365 79.9814 2 77.6467 2 66.4398C2 55.2328 2 23.9469 2 9.70475C2.23348 7.1365 4.1013 2 9.70476 2C15.3082 2 75.0784 2 104.263 2C106.831 2 111.968 3.54095 111.968 9.70475C111.968 15.8686 111.968 50.0963 111.968 66.4398C112.201 70.8758 111.267 79.748 105.664 79.748C102.307 79.748 87.0517 79.748 71.3428 79.748M42.6251 79.748C50.1136 79.748 60.8298 79.748 71.3428 79.748M71.3428 79.748V98.6596" stroke="currentColor" stroke-width="4" stroke-linecap="round" stroke-linejoin="round"/>
<path d="M83.5 41C83.5 55.6355 71.6355 67.5 57 67.5C42.3645 67.5 30.5 55.6355 30.5 41C30.5 26.3645 42.3645 14.5 57 14.5C71.6355 14.5 83.5 26.3645 83.5 41Z" stroke="currentColor" stroke-width="3"/>
</svg>
