<!-- Generated by IcoMoon.io -->
<svg version="1.1" xmlns="http://www.w3.org/2000/svg" width="32" height="32" viewBox="0 0 32 32" stroke="currentColor">
<title>notific</title>
<path fill="none" stroke-linejoin="round" stroke-linecap="round" stroke-miterlimit="4" stroke-width="2.6667" d="M25.333 14.667v-4c0-5.155-4.179-9.333-9.333-9.333s-9.333 4.179-9.333 9.333v4c0 4.4-4 5.467-4 8 0 2.267 5.2 4 13.333 4s13.333-1.733 13.333-4c0-2.533-4-3.6-4-8z"></path>
<path d="M15.999 29.334c-1.348 0-2.615-0.045-3.807-0.133 0.522 1.664 2.063 2.796 3.807 2.796s3.285-1.132 3.807-2.796c-1.192 0.088-2.459 0.133-3.807 0.133z"></path>
</svg>
