<!-- Generated by IcoMoon.io -->
<svg version="1.1" xmlns="http://www.w3.org/2000/svg" width="32" height="32" viewBox="0 0 32 32" fill="currentColor" stroke="none">
<title>processing</title>
<path d="M15.553 18.925c-0.196-0.284-0.314-0.636-0.314-1.015 0-0.496 0.201-0.946 0.526-1.271v0l0.944-0.944c0.325-0.325 0.774-0.526 1.271-0.526 0.379 0 0.731 0.117 1.021 0.318l-0.006-0.004 0.968 0.662c0.012-0.055 0.028-0.103 0.048-0.149l-0.002 0.006c0.129-0.27 0.737-1.624 0.843-1.797 0.321-0.517 0.885-0.857 1.529-0.857h1.335c0.102 0.001 0.202 0.010 0.298 0.027l-0.011-0.002c0.012-0.057 0.019-0.123 0.019-0.19v-1.851c-0-0.491-0.351-0.9-0.816-0.99l-0.006-0.001-2.145-0.402c-0.325-0.060-0.586-0.284-0.697-0.581l-0.002-0.006c-0.122-0.345-0.24-0.622-0.37-0.892l0.023 0.053c-0.053-0.113-0.084-0.245-0.084-0.384 0-0.196 0.062-0.378 0.167-0.528l-0.002 0.003 1.231-1.8c0.11-0.159 0.176-0.357 0.176-0.569 0-0.278-0.113-0.531-0.295-0.713l-1.309-1.308c-0.183-0.182-0.435-0.295-0.713-0.295-0.213 0-0.41 0.066-0.573 0.178l0.003-0.002-1.8 1.231c-0.146 0.103-0.328 0.165-0.524 0.165-0.14 0-0.272-0.031-0.39-0.087l0.006 0.002c-0.218-0.108-0.495-0.225-0.779-0.328l-0.061-0.019c-0.303-0.114-0.527-0.375-0.586-0.694l-0.001-0.006-0.402-2.144c-0.090-0.471-0.499-0.823-0.991-0.823-0 0-0 0-0 0h-1.851c-0.491 0-0.9 0.351-0.99 0.816l-0.001 0.006-0.402 2.144c-0.060 0.325-0.283 0.586-0.58 0.698l-0.006 0.002c-0.344 0.122-0.621 0.239-0.891 0.369l0.051-0.022c-0.113 0.053-0.245 0.084-0.385 0.084-0.196 0-0.378-0.062-0.527-0.166l0.003 0.002-1.8-1.231c-0.159-0.11-0.357-0.176-0.569-0.176-0.279 0-0.531 0.113-0.713 0.295v0l-1.308 1.308c-0.182 0.183-0.295 0.435-0.295 0.714 0 0.213 0.066 0.41 0.178 0.573l-0.002-0.003 1.231 1.8c0.103 0.146 0.165 0.328 0.165 0.524 0 0.14-0.031 0.272-0.087 0.39l0.002-0.006c-0.108 0.218-0.225 0.495-0.328 0.779l-0.019 0.060c-0.114 0.303-0.375 0.527-0.694 0.586l-0.006 0.001-2.144 0.402c-0.471 0.091-0.823 0.5-0.823 0.991v1.851c0 0.491 0.351 0.9 0.816 0.99l0.006 0.001 2.144 0.402c0.325 0.060 0.586 0.284 0.698 0.581l0.002 0.006c0.122 0.345 0.239 0.622 0.37 0.891l-0.023-0.052c0.053 0.113 0.085 0.245 0.085 0.385 0 0.196-0.062 0.378-0.166 0.527l0.002-0.003-1.231 1.8c-0.11 0.159-0.176 0.357-0.176 0.569 0 0.279 0.113 0.531 0.295 0.713l1.308 1.309c0.183 0.182 0.435 0.295 0.713 0.295 0.213 0 0.41-0.066 0.573-0.178l-0.003 0.002 1.8-1.231c0.146-0.103 0.328-0.164 0.525-0.164 0.139 0 0.272 0.031 0.39 0.087l-0.006-0.002c0.218 0.108 0.495 0.226 0.78 0.328l0.060 0.019c0.303 0.114 0.527 0.375 0.586 0.694l0.001 0.006 0.402 2.144c0.091 0.471 0.5 0.822 0.991 0.823h1.851c0.139-0.001 0.272-0.030 0.392-0.082l-0.006 0.003c-0.030-0.119-0.048-0.256-0.050-0.397v-1.336c0-0.631 0.326-1.186 0.818-1.507l0.007-0.004c0.562-0.264 1.248-0.526 1.954-0.739l0.113-0.029zM12.155 16.060c0 0-0 0-0 0-2.101 0-3.804-1.703-3.804-3.804s1.703-3.804 3.804-3.804c2.101 0 3.804 1.703 3.804 3.804 0 0 0 0 0 0v0c-0 2.101-1.703 3.804-3.804 3.804v0z"></path>
<path d="M30.982 21.772l-1.547-0.29c-0.298-0.055-0.538-0.261-0.64-0.535l-0.002-0.006c-0.085-0.241-0.167-0.435-0.259-0.624l0.016 0.036c-0.050-0.104-0.079-0.226-0.079-0.355 0-0.18 0.056-0.346 0.152-0.483l-0.002 0.003 0.888-1.299c0.060-0.086 0.096-0.194 0.096-0.309 0-0.151-0.061-0.288-0.16-0.387l-0.944-0.944c-0.099-0.099-0.236-0.16-0.387-0.16-0.115 0-0.223 0.036-0.311 0.097l0.002-0.001-1.299 0.888c-0.134 0.094-0.3 0.15-0.48 0.15-0.129 0-0.251-0.029-0.36-0.081l0.005 0.002c-0.153-0.076-0.347-0.158-0.546-0.23l-0.042-0.013c-0.279-0.104-0.486-0.343-0.54-0.636l-0.001-0.005-0.29-1.547c-0.049-0.256-0.271-0.446-0.538-0.446h-1.335c-0.267 0-0.489 0.191-0.537 0.443l-0.001 0.003-0.29 1.547c-0.055 0.298-0.261 0.538-0.535 0.64l-0.006 0.002c-0.242 0.085-0.436 0.167-0.625 0.259l0.036-0.016c-0.104 0.050-0.226 0.079-0.355 0.079-0.18 0-0.346-0.056-0.483-0.152l0.003 0.002-1.299-0.888c-0.086-0.060-0.194-0.096-0.309-0.096-0.151 0-0.288 0.061-0.387 0.16l-0.944 0.944c-0.099 0.099-0.16 0.236-0.16 0.387 0 0.115 0.036 0.223 0.097 0.311l-0.001-0.002 0.888 1.299c0.094 0.134 0.15 0.3 0.15 0.48 0 0.129-0.029 0.251-0.081 0.36l0.002-0.005c-0.076 0.153-0.158 0.347-0.23 0.546l-0.013 0.042c-0.104 0.279-0.343 0.486-0.637 0.54l-0.005 0.001-1.547 0.29c-0.256 0.049-0.446 0.271-0.446 0.538v0 1.335c0 0.267 0.191 0.489 0.443 0.537l0.003 0.001 1.547 0.29c0.298 0.055 0.538 0.261 0.64 0.535l0.002 0.006c0.085 0.241 0.167 0.435 0.259 0.624l-0.016-0.036c0.050 0.104 0.079 0.226 0.079 0.355 0 0.18-0.056 0.346-0.152 0.483l0.002-0.003-0.888 1.299c-0.060 0.086-0.096 0.194-0.096 0.309 0 0.151 0.061 0.288 0.16 0.387l0.944 0.944c0.099 0.099 0.236 0.16 0.387 0.16 0.115 0 0.223-0.036 0.311-0.097l-0.002 0.001 1.299-0.888c0.134-0.094 0.3-0.15 0.48-0.15 0.129 0 0.251 0.029 0.36 0.081l-0.005-0.002c0.153 0.076 0.347 0.158 0.546 0.23l0.042 0.013c0.279 0.104 0.486 0.343 0.54 0.636l0.001 0.005 0.29 1.547c0.049 0.256 0.271 0.446 0.538 0.446h1.335c0.267 0 0.489-0.191 0.537-0.443l0.001-0.003 0.29-1.547c0.055-0.298 0.261-0.538 0.535-0.64l0.006-0.002c0.241-0.085 0.436-0.167 0.624-0.259l-0.036 0.016c0.104-0.050 0.226-0.079 0.355-0.079 0.18 0 0.346 0.056 0.483 0.152l-0.003-0.002 1.299 0.889c0.086 0.060 0.194 0.096 0.309 0.096 0.151 0 0.288-0.061 0.387-0.16l0.944-0.944c0.099-0.099 0.16-0.236 0.16-0.387 0-0.115-0.036-0.223-0.097-0.311l0.001 0.002-0.888-1.299c-0.094-0.134-0.15-0.3-0.15-0.48 0-0.129 0.029-0.251 0.081-0.36l-0.002 0.005c0.076-0.153 0.158-0.347 0.23-0.546l0.013-0.042c0.104-0.279 0.343-0.485 0.636-0.54l0.005-0.001 1.547-0.29c0.256-0.049 0.446-0.271 0.446-0.538 0-0 0-0 0-0v0-1.335c0-0 0-0 0-0 0-0.267-0.191-0.489-0.443-0.537l-0.003-0.001zM23.048 26.083c-1.715-0-3.106-1.391-3.106-3.106s1.391-3.106 3.106-3.106c1.716 0 3.106 1.391 3.106 3.106v0c0 1.716-1.391 3.106-3.106 3.106v0z"></path>
</svg>
