<svg width="82" height="85" viewBox="0 0 82 85" fill="none" xmlns="http://www.w3.org/2000/svg">
<path d="M60.5009 55.4999C67.0009 57.1666 80.0009 57.7999 80.0009 46.9999C80.0009 33.4999 77.0009 28.9999 65.5009 29.4999C54.0009 29.9999 41.5009 32 42.0009 13" stroke="white" stroke-width="4" stroke-linecap="round" stroke-linejoin="round" stroke-dasharray="8 8"/>
<path d="M23.9994 60.4998C26.0456 62.1011 28.5287 65.1842 29 69.0493M23.9994 80.4998C17.9994 84.9998 6.49943 74.9998 9.99943 66.4998C9.99943 60.4998 3.50011 53.9998 15.5001 49.4998C15.8334 45.8331 19 38.6998 29 39.4998C31.5 37.9998 37.4 35.8998 41 39.4998M23.9994 80.4998C28.799 83.2997 33.9996 81.6664 36 80.4998C41.6 84.8997 52.3333 82.3331 57 80.4998M23.9994 80.4998C28.2885 76.3971 29.4116 72.4249 29 69.0493M41 39.4998C47 37.1665 59.8 35.2999 63 46.4998C68 48.8332 76.2 55.6998 69 64.4998M41 39.4998C37.8333 45.4998 34.8 58.3999 48 61.9998M69 64.4998C69.8333 69.8331 68.6 80.4998 57 80.4998M69 64.4998C68 63.1665 64.7 60.4998 59.5 60.4998M57 80.4998C51.5 78.9998 48.5 74.4998 48 71.4998M29 69.0493L36 64.4998M31.5 47.9998V29.4998C31.8329 26.6665 30.7989 20.8998 23.9994 20.4998C15.5001 19.9998 9.99943 22.4999 9.99943 30.9998C10.333 32.4999 9.9 35.4 5.5 35H2M2 35L5.5 39.4998M2 35L5 30.9998M44.5 51.5C47.5 51.3333 53.5 49.4 53.5 43C53.5 36.6 53.5 33 53.5 32C53.3333 29.5 54.7 24.4 61.5 24C70 23.5 75 24 75 16.5C75 10.5 75 5 75 3M75 3L79.5 8M75 3L70 8" stroke="white" stroke-width="4" stroke-linecap="round" stroke-linejoin="round"/>
<path d="M18 7L23.5 2L29 7" stroke="white" stroke-width="4" stroke-linecap="round" stroke-linejoin="round"/>
<path d="M36 7L41.5 2L47 7" stroke="white" stroke-width="4" stroke-linecap="round" stroke-linejoin="round"/>
<path d="M23.5 10.5V53.5" stroke="white" stroke-width="4" stroke-linecap="round" stroke-linejoin="round" stroke-dasharray="8 8"/>
</svg>
