<svg width="36" height="37" viewBox="0 0 36 37" fill="none" xmlns="http://www.w3.org/2000/svg">
<path d="M8.86 17.7662L8.2312 17.1294C8.47205 16.8703 8.77216 16.5489 9.12368 16.1742H8.86L1.3144 16.4926L8.86 7.89592L16.0912 8.53271L16.2532 8.71261C17.2201 7.71739 18.2225 6.69274 19.2352 5.66713C21.0462 3.83305 23.2757 2.6727 25.5232 1.96771C29.2062 0.812422 32.9376 0.880008 34.9552 1.20957C35.1638 4.16764 34.6225 7.00886 33.7754 9.4879C32.58 12.986 30.7757 15.7629 29.6104 17.1294L26.9428 19.6766L27.724 26.9998L19.864 35.5965L19.5496 26.7359L18.6064 27.6366L16.8098 26.0446C14.3665 34.1955 7.76709 34.3229 4.7728 33.3677L1 35.2781C1.524 34.0045 2.572 31.33 2.572 30.8205C1.06288 23.9431 6.764 20.1011 9.8032 19.0398L8.86 17.7662Z" fill="url(#paint0_linear_670_4746)"/>
<path d="M26.9428 19.6766L29.6104 17.1294C30.7757 15.7629 32.58 12.986 33.7754 9.4879M26.9428 19.6766L27.724 26.9998L19.864 35.5965L19.5496 26.7359M26.9428 19.6766L19.5496 26.7359M19.5496 26.7359L18.6064 27.6366L16.8098 26.0446M9.8032 19.0398L8.86 17.7662L8.2312 17.1294C9.55265 15.7075 12.6575 12.4136 16.2532 8.71261M9.8032 19.0398L10.7464 20.3134L9.8032 23.179L11.5324 24.771M9.8032 19.0398C6.764 20.1011 1.06288 23.9431 2.572 30.8205C2.572 31.33 1.524 34.0045 1 35.2781L4.7728 33.3677C7.76709 34.3229 14.3665 34.1955 16.8098 26.0446M16.8098 26.0446L16.0912 25.4078L13.2616 26.363L11.5324 24.771M8.5456 27.6366L11.5324 24.771M14.2048 21.9054L17.0344 19.0398M25.5232 1.96771C29.2062 0.812422 32.9376 0.880008 34.9552 1.20957C35.1638 4.16764 34.6225 7.00886 33.7754 9.4879M25.5232 1.96771C23.2757 2.6727 21.0462 3.83305 19.2352 5.66713C18.2225 6.69274 17.2201 7.71739 16.2532 8.71261M25.5232 1.96771C25.7846 4.79284 27.8011 10.2521 33.7754 9.4879M16.2532 8.71261L9.1744 16.1742H8.86L1.3144 16.4926L8.86 7.89592L16.0912 8.53271L16.2532 8.71261ZM22.436 10.4431C20.864 10.4431 19.292 12.0351 19.292 13.6271C19.292 15.0151 20.8803 16.4993 22.436 16.4926C23.7574 16.487 25.2656 15.2357 25.2656 13.6271C25.2656 12.0351 24.008 10.4431 22.436 10.4431Z" stroke="white"/>
<defs>
<linearGradient id="paint0_linear_670_4746" x1="36.2128" y1="-0.382415" x2="-3.90208" y2="39.2288" gradientUnits="userSpaceOnUse">
<stop stop-color="#FFC700"/>
<stop offset="1" stop-color="#D40606"/>
</linearGradient>
</defs>
</svg>
