<!-- Generated by IcoMoon.io -->
<svg version="1.1" xmlns="http://www.w3.org/2000/svg" width="32" height="32" viewBox="0 0 32 32" stroke="currentColor">
<title>settings</title>
<path fill="none" stroke-linejoin="round" stroke-linecap="butt" stroke-miterlimit="4" stroke-width="2.2857" d="M4 6.857l1.714 2.857-1.714 3.429h-2.857v5.714h2.857l1.714 4-1.714 1.714 2.857 3.429 2.857-1.714 3.429 1.714v2.857h5.714v-2.857l3.429-1.714 2.286 2.286 3.429-3.429-1.714-2.286 1.714-4h2.857v-5.714h-2.857l-1.714-3.429 1.714-2.857-3.429-2.857-2.286 1.714-3.429-1.714v-2.857h-5.714v2.857l-3.429 1.714-2.857-1.714-2.857 2.857z"></path>
<path fill="none" stroke-linejoin="miter" stroke-linecap="butt" stroke-miterlimit="4" stroke-width="2.2857" d="M22.857 16c0 3.787-3.070 6.857-6.857 6.857s-6.857-3.070-6.857-6.857c0-3.787 3.070-6.857 6.857-6.857s6.857 3.070 6.857 6.857z"></path>
</svg>
