<svg width="23" height="23" viewBox="0 0 23 23" fill="none" xmlns="http://www.w3.org/2000/svg">
<path d="M1.23187 4.71792C0.250057 7.07427 2.62277 10.6088 3.93186 12.0815C6.38645 14.536 11.7865 19.7396 13.7502 20.9178C15.7138 22.096 18.0047 21.5723 18.9047 21.1633C19.3956 20.9178 19.641 20.6723 21.1138 18.9542C22.5595 17.2674 21.9319 15.6815 21.3592 15.0269C20.1319 13.636 17.3338 11.0506 15.9592 11.836C14.2411 12.8178 13.2592 12.0815 11.7865 10.8542C10.3138 9.62695 10.3138 8.39968 10.8047 7.17242C11.1974 6.1906 10.8047 4.96334 10.5593 4.47243C10.1911 3.73607 8.59563 1.77244 6.87746 1.03612C4.42292 0.790631 2.45914 1.77248 1.23187 4.71792Z" stroke="#438CED" stroke-width="2"/>
</svg>
