<svg width="46" height="34" viewBox="0 0 46 34" fill="none" xmlns="http://www.w3.org/2000/svg">
<path d="M32.0184 33.1996C28.6444 33.8468 25.1554 33.4418 22.0291 32.0474L23.4972 29.0561C25.9691 30.1376 28.7188 30.4471 31.3788 29.9369C34.2019 29.3954 36.7722 27.9597 38.703 25.8447C40.6338 23.7296 41.8206 21.0496 42.0843 18.2073C42.3479 15.365 41.674 12.515 40.1644 10.0857C38.6549 7.65642 36.3914 5.77953 33.715 4.7363C31.0387 3.69309 28.0934 3.53961 25.3218 4.29881C22.55 5.05802 20.1009 6.68914 18.343 8.94782C16.6879 11.0745 15.73 13.6492 15.5917 16.3251L12.2303 16.2808C12.3796 12.8871 13.5823 9.61678 15.6808 6.92043C17.8822 4.09181 20.9506 2.04756 24.4252 1.09584C27.8998 0.1441 31.5921 0.336574 34.9468 1.6442C38.3014 2.95181 41.1366 5.30361 43.0267 8.34524C44.9168 11.3868 45.76 14.9541 45.43 18.511C45.1001 22.0679 43.6148 25.4231 41.1965 28.0721C38.7782 30.7211 35.5576 32.5208 32.0184 33.1996Z" stroke="url(#paint0_linear_670_4729)"/>
<rect x="2" y="20" width="13" height="2" rx="1" fill="url(#paint1_linear_670_4729)"/>
<rect x="1" y="24" width="16" height="2" rx="1" fill="url(#paint2_linear_670_4729)"/>
<rect y="28" width="19" height="2" rx="1" fill="url(#paint3_linear_670_4729)"/>
<rect x="33.2559" y="9.69385" width="1.5" height="6.27766" rx="0.75" transform="rotate(37 33.2559 9.69385)" fill="url(#paint4_linear_670_4729)"/>
<circle cx="28.5" cy="17.5" r="3" stroke="url(#paint5_linear_670_4729)"/>
<defs>
<linearGradient id="paint0_linear_670_4729" x1="28" y1="0" x2="28" y2="34" gradientUnits="userSpaceOnUse">
<stop stop-color="#FF0000"/>
<stop offset="1" stop-color="#FFA800"/>
</linearGradient>
<linearGradient id="paint1_linear_670_4729" x1="8.5" y1="20" x2="8.5" y2="22" gradientUnits="userSpaceOnUse">
<stop stop-color="#FF0000"/>
<stop offset="1" stop-color="#FFA800"/>
</linearGradient>
<linearGradient id="paint2_linear_670_4729" x1="9" y1="24" x2="9" y2="26" gradientUnits="userSpaceOnUse">
<stop stop-color="#FF0000"/>
<stop offset="1" stop-color="#FFA800"/>
</linearGradient>
<linearGradient id="paint3_linear_670_4729" x1="9.5" y1="28" x2="9.5" y2="30" gradientUnits="userSpaceOnUse">
<stop stop-color="#FF0000"/>
<stop offset="1" stop-color="#FFA800"/>
</linearGradient>
<linearGradient id="paint4_linear_670_4729" x1="34.0059" y1="9.69385" x2="34.0059" y2="15.9715" gradientUnits="userSpaceOnUse">
<stop stop-color="#FF0000"/>
<stop offset="1" stop-color="#FFA800"/>
</linearGradient>
<linearGradient id="paint5_linear_670_4729" x1="28.5" y1="14" x2="28.5" y2="21" gradientUnits="userSpaceOnUse">
<stop stop-color="#FF0000"/>
<stop offset="1" stop-color="#FFA800"/>
</linearGradient>
</defs>
</svg>
