<svg width="47" height="70" viewBox="0 0 47 70" fill="none" xmlns="http://www.w3.org/2000/svg">
<path d="M12.0137 52.401C11.8994 50.0007 11.3279 44.9257 9.95632 43.8284C8.24181 42.4568 -3.75973 28.055 3.09829 12.9673C9.95632 -2.12035 34.303 -3.83485 43.9042 12.9673C50.4193 28.7409 39.7894 41.0851 38.4178 43.8284C37.3205 46.0231 36.8176 50.4579 36.7033 52.401M17.4593 52.401V43.8284L10.9441 38.0333V32.5469M10.9441 32.5469C9.59979 31.5182 7.52014 29.0493 9.95632 27.4034C13.0015 25.346 15.7448 30.8324 10.9441 32.5469ZM20.5454 52.401V36.3188L17.4593 32.5469V27.4034M17.4593 27.4034C16.7735 27.0605 15.4019 26.0318 15.4019 24.6602C15.4019 23.2886 16.5449 22.4885 17.1164 22.2599C18.2594 22.1456 19.8596 22.2599 19.8596 24.6602C19.8596 26.4087 19.1738 26.3747 17.4593 27.4034ZM23.9744 52.401V31.1753L26.0318 28.775V22.9457M26.0318 22.9457C25.346 22.6028 23.9744 21.5741 23.9744 20.2025C23.9744 18.488 25.346 17.8022 26.0318 17.8022C26.7176 17.8022 28.4321 18.1451 28.4321 20.2025C28.4321 22.2599 27.4034 22.2599 26.0318 22.9457ZM27.2645 52.401V38.3763L31.5182 34.2614V29.1179M31.5182 29.1179C30.7181 29.0036 29.1179 28.3635 29.1179 26.7176C29.1179 24.6602 30.8324 24.6602 31.5182 24.6602C32.204 24.6602 33.9185 25.0031 33.9185 26.7176C33.9185 28.4321 32.8898 29.1179 31.5182 29.1179ZM30.4895 52.401V43.5198L37.6904 36.6617V32.204M37.6904 32.204C37.0046 31.7468 35.7016 30.4895 35.9759 29.1179C36.3188 27.4034 39.405 27.4034 39.7479 28.4321C40.0908 29.4608 40.7766 31.5182 37.6904 32.204ZM5.45772 25.6889V21.5741H8.54383C8.68539 20.6597 9.16606 18.6251 9.95632 17.8022L6.82932 15.7448L8.88673 12.6586L10.9441 14.3732C11.5156 13.4588 13.0015 11.6299 14.3732 11.6299L13.0015 8.20093L16.0877 6.48642L17.4593 9.22963C18.488 8.54383 20.8197 7.37797 21.917 8.20093V4.42901H25.346V8.20093C26.1461 8.20093 28.0206 8.40667 29.1179 9.22963L31.5182 6.48642L34.6043 8.20093L32.5469 10.9441C33.4613 11.5156 35.4273 13.0015 35.9759 14.3732L39.062 12.6586L41.4624 15.4019L38.0333 17.1164C38.3762 17.9165 39.062 19.9282 39.062 21.5741H42.834V25.6889M13.6873 19.5167C16.5449 14.3732 24.5916 7.10364 33.9185 19.1738M12.0137 56.2071H35.9759V60.3219H12.0137V64.4368H35.9759V68.2087H20.5454" stroke="#FF8616" stroke-width="2" stroke-linecap="round" stroke-linejoin="round"/>
</svg>
