<svg width="47" height="70" viewBox="0 0 47 70" fill="none" xmlns="http://www.w3.org/2000/svg">
<path d="M12.0137 52.401C11.8994 50.0007 11.3279 44.9258 9.95632 43.8285C8.24181 42.4569 -3.75973 28.055 3.09829 12.9673C9.95632 -2.12035 34.303 -3.83486 43.9042 12.9673C50.4193 28.7409 39.7894 41.0852 38.4178 43.8285C37.3205 46.0231 36.8176 50.4579 36.7033 52.401M12.0137 56.2072H35.9759V60.322H12.0137V64.4368H35.9759V68.2087H20.5454M11.4348 10.4565L14.0435 12.9673M18.2826 8.17391L18.9348 9.80435M24.1522 4.58696V8.82609M30.6739 8.17391L29.3696 9.80435M36.7033 10.4565L34.2609 12.9673M39.1522 16.9783L37.1957 17.9565M42.413 23.1739H37.8478M39.1522 29.6957L37.1957 28.3913M34.2609 32.9565L36.7033 35.8913M29.3696 35.8913L30.3478 37.8478M24.1522 37.1957V41.1087M18.9348 35.8913L17.6304 37.8478M14.0435 32.9565L11.4348 35.8913M11.1087 28.3913L9.15217 29.6957M9.95632 23.1739H5.8913M11.1087 17.9565L9.15217 16.9783M27.7391 18.9348C26.3261 17.9565 23.0435 16.587 21.2174 18.9348C18.9348 21.8696 24.1522 22.8478 26.1087 23.8261C28.0652 24.8043 28.3913 27.7391 26.1087 28.3913C23.8261 29.0435 21.2174 28.7174 20.2391 26.7609M24.1522 16V31" stroke="#FF8616" stroke-width="2" stroke-linecap="round" stroke-linejoin="round"/>
<path d="M35.2162 23.174C35.2162 29.4653 30.1161 34.5653 23.8249 34.5653C17.5337 34.5653 12.4336 29.4653 12.4336 23.174C12.4336 16.8828 17.5337 11.7827 23.8249 11.7827C30.1161 11.7827 35.2162 16.8828 35.2162 23.174Z" stroke="#FF8616" stroke-width="2"/>
</svg>
