<svg width="77" height="71" viewBox="0 0 77 71" fill="none" xmlns="http://www.w3.org/2000/svg">
<path d="M39.4375 42.0641C39.4375 45.8568 43.6517 47.0309 46.8123 45.2247C48.0408 44.5227 49.6552 42.9085 50.4984 42.0654L50.4997 42.0641C51.5533 41.0107 57.3478 46.2781 61.0352 45.7513C65.7761 45.074 70.6576 42.0641 71.0439 36.2696C71.5706 28.368 59.9816 24.6806 51.5533 26.7877C43.1249 28.8947 39.4375 37.3231 39.4375 42.0641Z" stroke="currentColor" stroke-width="2"/>
<path d="M9.41222 56.8138C8.18309 56.9894 5.72482 56.2871 5.72482 52.0729C5.72482 47.8587 5.72482 28.1925 5.72482 18.8862C5.72482 17.3059 6.25159 14.1453 8.35868 14.1453H15.2067M29.4296 24.1541C26.6201 16.7793 20.6852 1.92414 19.4209 1.50273C18.1567 1.08131 18.1918 3.08304 18.3674 4.13659L22.5815 26.788M29.4296 24.1541V31.0022L26.2689 32.0557M29.4296 24.1541L22.5815 26.788M26.2689 32.0557L22.5815 26.788M26.2689 32.0557C25.2154 33.6361 23.7404 37.2181 26.2689 38.9038C28.7975 40.5894 31.1855 42.4156 32.0634 43.118C32.0634 41.362 32.8884 38.2376 33.117 37.3235C33.6438 35.2164 33.209 30.4754 29.2122 31.0022M29.4296 14.1453H64.7233C66.1281 14.1453 68.9375 14.6722 68.9375 16.7793C68.9375 18.8864 68.9375 22.5738 68.9375 24.1541M65.2501 24.1541V19.94C65.2501 19.2376 64.7233 17.8329 62.6163 17.8329C60.5092 17.8329 40.3162 17.8329 30.4831 17.8329M17.3138 17.8329H12.5729C11.5193 17.6573 9.41222 17.8329 9.41222 19.94C9.41222 22.0471 9.41222 41.5376 9.41222 51.0195C9.58782 51.7219 10.6765 53.1266 13.6264 53.1266C16.5763 53.1266 46.4619 53.1266 61.0359 53.1266C62.2651 53.1266 64.7233 52.7052 64.7233 51.0195V48.9125M1.25928 63.1353C1.44783 61.4496 3.34447 61.0282 4.14354 61.0282C26.0924 61.0282 70.5169 61.0282 72.624 61.0282C74.731 61.0282 75.2578 62.4329 75.2578 63.1353C75.2578 63.4865 75.2578 64.7156 75.2578 66.8227C75.2578 68.9298 73.5019 69.4566 72.624 69.4566C49.9731 69.4566 4.24985 69.4566 2.56418 69.4566C1.66584 69.4566 1.25624 68.4985 1.25782 66.8227C1.25904 65.5351 1.2607 64.1889 1.25928 63.1353Z" stroke="currentColor" stroke-width="2"/>
</svg>
