<svg width="47" height="70" viewBox="0 0 47 70" fill="none" xmlns="http://www.w3.org/2000/svg">
<path d="M12.0137 52.401C11.8994 50.0007 11.3279 44.9258 9.95632 43.8285C8.24181 42.4569 -3.75973 28.055 3.09829 12.9673C9.95632 -2.12035 34.303 -3.83486 43.9042 12.9673C50.4193 28.7409 39.7894 41.0852 38.4178 43.8285C37.3205 46.0231 36.8176 50.4579 36.7033 52.401M12.0137 56.2072H35.9759V60.322H12.0137V64.4368H35.9759V68.2087H20.5454M17.1194 37.6045C16.5825 38.1642 15.1592 39.2164 13.7612 38.9478C12.7913 38.7614 11.1393 36.7128 10.8374 34.5821M13.7612 30.2164C11.2209 31.113 10.5953 32.8739 10.8374 34.5821M10.8374 34.5821C8.86037 33.3751 5.93665 30.6125 7.29613 27.8657M8.72388 26.1866C8.03647 26.7365 7.57572 27.3007 7.29613 27.8657M7.29613 27.8657C5.79407 26.2985 3.50659 22.694 6.37313 20.8134M6.37313 20.8134C9.23968 18.9328 12.4929 21.3731 13.7612 22.8284M6.37313 20.8134C6.0601 18.6866 6.092 14.3657 8.72388 14.097C8.94666 14.5871 9.36454 15.283 9.95632 15.9601M13.7612 18.1269C12.144 17.9651 10.8513 16.9841 9.95632 15.9601M9.95632 15.9601C9.99327 13.4361 11.0075 8.52239 14.7687 9.0597M14.7687 9.0597C16.6493 9.0597 17.791 10.6269 18.1269 11.4104M14.7687 9.0597C15.4403 7.75716 17.7239 5.9336 21.4851 9.0597C22.1567 8.38806 23.9701 7.11194 25.8507 7.3806M32.903 10.0672C33.9401 10.989 35.1195 12.5277 35.2141 14.097M31.5597 18.1269C34.4281 17.0838 35.3033 15.5768 35.2141 14.097M35.2141 14.097C36.8535 14.5448 39.7894 16.5149 38.4178 20.8134M38.4178 20.8134C37.0273 20.3657 33.9776 20.1418 32.903 22.8284M38.4178 20.8134C39.9202 21.9328 42.0236 24.9104 38.4178 27.8657M38.4178 27.8657L35.9759 26.1866M38.4178 27.8657C39.1277 30.1045 39.4809 34.5821 35.2141 34.5821M35.2141 34.5821C30.9473 34.5821 32.791 34.5821 34.2463 34.5821C35.1418 33.5746 35.7239 31.4254 30.8881 30.8881M35.2141 34.5821C35.4512 36.1493 35.1194 39.3507 31.8955 39.6194M31.8955 39.6194C28.6716 39.8881 27.8657 38.1642 27.8657 37.2687M31.8955 39.6194C30.6642 40.8507 27.3284 42.709 23.8358 40.291C23.0299 39.7537 22.6045 38.9478 22.4925 38.6119M30.8881 5.36567L21.4851 22.8284L27.8657 22.8284L18.1269 42.6418M14.7687 15.1045C15.5522 14.4328 17.6567 13.4925 19.806 15.1045M14.7103 26.1866C15.4938 26.1866 17.2625 25.8507 18.0685 24.5075M25.8507 34.5821C26.4104 34.0224 28.2015 33.2388 30.8881 34.5821M18.1269 31.8955C18.2388 32.5672 17.9925 34.0448 16.1119 34.5821" stroke="#FF8616" stroke-width="2" stroke-linecap="round" stroke-linejoin="round"/>
</svg>
