<svg width="79" height="88" viewBox="0 0 79 88" fill="none" xmlns="http://www.w3.org/2000/svg">
<path d="M5 62.5V50.5C5.16667 47.3333 9 38.5 18.5 40M5 62.5C7 62.5 10.5 62.5 11 62.5M5 62.5C3.83333 63.1667 1.5 65.3 1.5 68.5M18.5 40C18.8333 38.6667 20.5 36 24.5 36C28.5 36 46.1667 36 54.5 36C56 36.3333 59.1 37.6 59.5 40M18.5 40V45.5M59.5 40C63.8333 39.5 72.7 40.9 73.5 50.5V62.5M59.5 40V44.5M54.5 66.5C58.9 66.5 59.6667 63.8333 59.5 62.5V44.5M54.5 66.5C53.0916 66.5 50.3478 66.5 47 66.5M54.5 66.5V81H59.5V86.5H42.5V81H47V66.5M18.5 45.5C18.5 49.8333 18.5 59.3 18.5 62.5C18.5 65.0152 20.9712 66.0477 23 66.3744M18.5 45.5C18.5 42.75 11 46.9 11 50.5C11 54.1 11 60 11 62.5M11 62.5C12.5 63.1667 15.5 65.3 15.5 68.5M73.5 62.5H68.5M73.5 62.5C74.8333 63.3333 77.4 65.7 77 68.5M68.5 62.5V51.5C68.1667 48.8333 65.9 43.7 59.5 44.5M68.5 62.5C64.5 64.1 64.1667 67.1667 64.5 68.5M24.5 17.5H19.5V28H24.5M24.5 28V31.5H54.5V28M24.5 28V13.5H34.5M54.5 28H60.5V17.5H54.5M54.5 28V17.5M54.5 17.5V13.5H44.5M23 66.3744C23.5524 66.4634 24.072 66.5 24.5 66.5C26.6571 66.5 29.4608 66.5 32.5 66.5M23 66.3744V81H19.5V86.5H36.5V81H32.5V66.5M32.5 66.5C37.2839 66.5 42.6515 66.5 47 66.5M34.5 13.5V6.5H29.5V1.5M34.5 13.5H44.5M44.5 13.5V6.5H50V1.5M26 47V59.5H52.5V47H26Z" stroke="currentColor" stroke-width="3" stroke-linecap="round" stroke-linejoin="round"/>
</svg>
