<svg width="85" height="63" viewBox="0 0 85 63" fill="none" xmlns="http://www.w3.org/2000/svg">
<path d="M9.41222 48.8141C8.18308 48.9897 5.72481 48.2873 5.72481 44.0731C5.72481 39.8589 5.72481 20.1928 5.72481 10.8865C5.72481 9.30614 6.25158 6.14551 8.35867 6.14551H15.2067H29.4296H56.7233M54.6163 9.83312C52.5092 9.83312 40.3162 9.83312 30.4831 9.83312H17.3138H12.5729C11.5193 9.65753 9.41222 9.83312 9.41222 11.9402C9.41222 14.0473 9.41222 33.5379 9.41222 43.0198C9.58781 43.7221 10.6765 45.1269 13.6264 45.1269M51.998 61.4568C29.3471 61.4568 4.24985 61.4568 2.56418 61.4568C1.66583 61.4568 1.25623 60.4987 1.25782 58.823C1.25904 57.5353 1.26069 56.1891 1.25928 55.1356C1.44782 53.4499 3.34446 53.0285 4.14354 53.0285C26.0924 53.0285 49.891 53.0285 51.998 53.0285" stroke="currentColor" stroke-width="2"/>
<path d="M27 61.5C27.4271 56.3325 30.139 49.0383 37.2637 44.4091M83.5 61.5C82.279 51.1216 77.939 46.4261 72.1961 43.5279M37.2637 44.4091L38.164 52.3261L44.5068 48.717L42.4855 41.9867M37.2637 44.4091C38.7937 43.415 40.5273 42.5857 42.4855 41.9867M42.4855 41.9867C44.2242 41.4549 46.14 41.1047 48.2476 40.982C48.6096 40.9609 48.9697 40.9406 49.328 40.9213M37.2637 61.5L45.7269 46.7441M49.328 40.9213L45.7269 46.7441M49.328 40.9213C47.9475 39.501 46.0148 36.8045 49.328 37.3807C50.124 37.5192 50.7766 37.6673 51.3087 37.8167M49.328 40.9213C55.8811 40.5682 61.7988 40.5357 66.7942 41.6516M45.7269 46.7441L55.5329 52.3261M50.0482 61.5L57.4309 53.4065L55.5329 52.3261M55.5329 52.3261C57.1859 50.1653 61.0322 45.2314 63.1929 42.7826C65.159 40.5543 62.2592 38.3262 59.7717 36.8619M66.7942 41.6516C66.1931 43.6543 65.38 46.6441 64.6675 49.8052M66.7942 41.6516C68.7405 42.0864 70.5468 42.6955 72.1961 43.5279M63.1929 61.5C62.7612 58.7371 63.6017 54.5344 64.6675 49.8052M64.6675 49.8052L71.4759 52.3261L72.1961 43.5279M51.3087 37.8167C52.9914 38.2889 53.4695 38.7733 53.4695 39.0013C54.1297 37.5008 55.8463 34.7158 57.4309 35.5801C57.9698 35.874 58.8419 36.3146 59.7717 36.8619M51.3087 37.8167C48.4706 36.5614 43.7404 32.757 42.4855 26.1655M42.4855 19.1941C47.4073 18.4139 57.5029 16.061 58.5113 12.8919C59.9781 14.6409 63.9375 17.8747 68.5949 17.6585M42.4855 19.1941C42.041 21.7927 42.095 24.1141 42.4855 26.1655M42.4855 19.1941C41.5 18.6706 40.6672 18.1206 39.9646 17.5552M69.4952 17.5736C70.2154 14.7526 71.0437 9.00251 68.5949 8.57035C65.5338 8.03016 63.5531 8.03016 61.5723 9.47068C63.1929 7.85014 65.6418 4.32095 62.4727 3.16854C58.5113 1.72803 50.5884 -1.15289 45.1865 3.70873C41.5852 7.30999 42.6656 9.29053 39.9646 8.57035C37.2637 7.85018 36.5434 6.76963 36.3633 9.47068C36.2141 11.7097 36.5598 14.8147 39.9646 17.5552M69.4952 17.5736C70.5756 17.9937 72.7363 19.3023 72.7363 21.1749C72.7363 23.5158 71.6559 25.394 68.5949 26.1655M69.4952 17.5736C69.1925 17.6168 68.8923 17.6447 68.5949 17.6585M42.4855 26.1655C41.045 26.3626 37.9839 26.1087 37.2637 23.5158C36.3633 20.2746 37.4437 18.7972 39.9646 17.5552M68.5949 26.1655C67.7546 29.558 64.8135 36.4468 59.7717 36.8619M68.5949 26.1655V17.6585M46.2669 21.1749H47.1672M50.0482 21.1749H49.328M59.7717 21.1749H60.672M63.7331 21.1749H63.1929H62.6527M49.328 21.1749C49.388 21.5325 49.364 22.2476 48.7878 22.2476C48.0675 22.2476 47.1672 22.4431 47.1672 21.1749M49.328 21.1749H47.1672M60.672 21.1749C60.612 21.5325 60.672 22.2476 61.3923 22.2476C62.2926 22.2476 62.6527 22.083 62.6527 21.1749M60.672 21.1749H62.6527M55.8103 23.5158L57.0707 26.5769C57.0707 26.9054 56.8907 27.4271 56.1704 26.8857L54.7299 23.6881C54.8499 23.3932 55.2341 22.9458 55.8103 23.5158ZM52.7492 31.4386H56.3505C57.0707 31.1567 56.6506 30.7158 56.3505 30.5305H52.7492C52.0289 30.8907 52.3891 31.1959 52.7492 31.4386Z" stroke="currentColor" stroke-width="2" stroke-linecap="round" stroke-linejoin="round"/>
</svg>
