<svg width="47" height="70" viewBox="0 0 47 70" fill="none" xmlns="http://www.w3.org/2000/svg">
<path d="M12.0137 52.401C11.8994 50.0007 11.3279 44.9258 9.95632 43.8285C8.24181 42.4569 -3.75973 28.055 3.09829 12.9673C9.95632 -2.12035 34.303 -3.83486 43.9042 12.9673C50.4193 28.7409 39.7894 41.0852 38.4178 43.8285C37.3205 46.0231 36.8176 50.4579 36.7033 52.401M12.0137 56.2072H35.9759V60.322H12.0137V64.4368H35.9759V68.2087H20.5454M21.6507 9.0137C16.7192 13.5342 9.50685 25.6575 20.1096 37.9863M25.9658 9.0137C30.6918 13.7397 37.2466 26.274 25.6575 38.6027M34.2877 13.9452C30.0753 15.7945 19.7397 18.2603 12.0959 13.3288M23.5 9.0137V38.6027M38.4178 23.5H8.39726M34.2877 34.5959C29.5616 32.0274 18.5068 28.2466 12.0959 33.6712" stroke="#FF8616" stroke-width="2" stroke-linecap="round" stroke-linejoin="round"/>
<circle cx="23.1915" cy="23.8082" r="15.0274" stroke="#FF8616" stroke-width="2"/>
</svg>
