<svg width="87" height="93" viewBox="0 0 87 93" fill="none" xmlns="http://www.w3.org/2000/svg">
<path d="M55.5055 38.0816C63.6825 47.8482 69.7355 57.7662 72.9271 65.8815C74.5249 69.9443 75.384 73.5014 75.4652 76.3329C75.5467 79.1785 74.844 81.1136 73.538 82.2069C72.2321 83.3003 70.2037 83.652 67.4167 83.0714C64.6435 82.4938 61.2929 81.0227 57.5743 78.7355C50.1464 74.167 41.4469 66.4648 33.2699 56.6982C25.0929 46.9316 19.04 37.0136 15.8484 28.8982C14.2506 24.8355 13.3914 21.2784 13.3103 18.4469C13.2287 15.6013 13.9315 13.6662 15.2374 12.5728C16.5434 11.4795 18.5718 11.1278 21.3588 11.7084C24.132 12.286 27.4826 13.7571 31.2012 16.0442C38.6291 20.6128 47.3285 28.315 55.5055 38.0816Z" stroke="#FFFEFE" stroke-width="2"/>
<path d="M44 34C55.5204 34 65.9087 35.558 73.3823 38.0492C77.1243 39.2965 80.0804 40.7597 82.0805 42.336C84.0918 43.9211 85 45.5047 85 47C85 48.4953 84.0918 50.0789 82.0805 51.664C80.0804 53.2403 77.1243 54.7035 73.3823 55.9508C65.9087 58.442 55.5204 60 44 60C32.4796 60 22.0913 58.442 14.6177 55.9508C10.8757 54.7035 7.91961 53.2403 5.91954 51.664C3.9082 50.0789 3 48.4953 3 47C3 45.5047 3.9082 43.9211 5.91954 42.336C7.91961 40.7597 10.8757 39.2965 14.6177 38.0492C22.0913 35.558 32.4796 34 44 34Z" stroke="#FFFEFE" stroke-width="2"/>
<path d="M31.7767 36.9038C40.2574 27.0217 49.2186 19.2305 56.8248 14.6117C60.6328 12.2993 64.0515 10.8127 66.867 10.2309C69.6992 9.64569 71.734 10.008 73.0193 11.111C74.3046 12.214 74.9715 14.1703 74.8228 17.0586C74.6751 19.9297 73.7244 23.5344 72.0167 27.6492C68.6056 35.8683 62.2645 45.9079 53.7838 55.79C45.3031 65.6721 36.342 73.4633 28.7357 78.0821C24.9277 80.3945 21.509 81.8811 18.6936 82.4629C15.8613 83.0481 13.8265 82.6858 12.5412 81.5828C11.2559 80.4798 10.589 78.5235 10.7377 75.6353C10.8855 72.7641 11.8361 69.1594 13.5439 65.0446C16.9549 56.8255 23.2961 46.7859 31.7767 36.9038Z" stroke="#FFFEFE" stroke-width="2"/>
<circle cx="43.5" cy="46.5" r="7.5" fill="white"/>
</svg>
