<svg width="84" height="71" viewBox="0 0 84 71" fill="none" xmlns="http://www.w3.org/2000/svg">
<path d="M51.1588 55C46.21 55 41.4854 55 39 55V49H60C65.1667 49 75.5 46.2 75.5 35C75.5 23.8 69.1667 20 66 19.5L68 13.5C72.8333 15.3333 82.5 22.2 82.5 35C82.5 51 69 55 60 55C59.5111 55 59.0102 55 58.5 55M51.1588 55V61.5H39V69H81V61.5H58.5V55M51.1588 55C53.6338 55 56.1649 55 58.5 55M2.5 14H12.5L18.5 25L22.5 2H43.5M10 35.5V52M18.5 44H2M19 55L28 65.5M28 55L19 65.5M31 14L36 10V24H31H41M65.5 12L67.5 6L59 3L46.5 38L48.5 38.75L51.5 39.875L55.5 41.5L65.5 12Z" stroke="currentColor" stroke-width="3" stroke-linecap="round" stroke-linejoin="round"/>
</svg>
