<svg width="97" height="133" viewBox="0 0 97 133" fill="none" xmlns="http://www.w3.org/2000/svg">
<path d="M31.1278 52.6335C43.3102 54.5858 56.1453 45.9629 61.04 41.4073C61.9102 46.4835 67.9289 51.0065 70.8295 52.6335M31.1278 52.6335C28.7711 53.1216 23.9489 53.4144 23.5138 50.6811C22.97 47.2645 21.8822 26.2765 40.3734 21.8836C58.8646 17.4908 72.4616 25.3003 73.5493 29.6931C73.929 31.2266 74.839 32.8792 75.7238 34.9414M31.1278 52.6335C31.2616 59.8387 33.5682 72.4153 40.8906 78.6657M70.8295 52.6335C73.8746 52.6335 76.0869 52.6335 76.8124 52.6335C78.9365 44.0558 77.3737 38.7865 75.7238 34.9414M70.8295 52.6335C70.5673 59.9258 68.1261 72.439 61.04 78.6657M61.04 78.6657C58.3242 81.0522 54.926 82.5153 50.7067 82.4071C46.7185 82.3049 43.4888 80.8836 40.8906 78.6657M61.04 78.6657V87.7757C61.7251 87.9874 62.453 88.2196 63.216 88.471M73.5493 130.728H94.7598C94.9411 126.335 95.1949 115.597 94.7598 107.787C94.3516 100.462 74.7688 92.2771 63.216 88.471M78.9879 129.264V114.133M67.023 130.728H59.9523M40.8906 78.6657V87.7757C39.5838 88.1354 38.1249 88.5661 36.567 89.0598M23.5138 114.133V130.728M23.5138 130.728H7.19864C7.19864 126.66 7.19864 116.378 7.19864 107.787C7.19864 101.298 20.0165 94.9573 31.1278 90.9112M23.5138 130.728H41.9784M41.9784 130.728L47.4169 109.74H55.0581L59.9523 130.728M41.9784 130.728H59.9523M31.1278 90.9112L38.7424 107.787L63.216 88.471M31.1278 90.9112C33.0137 90.2244 34.8504 89.6038 36.567 89.0598M70.8295 92.6566L63.216 107.787L36.567 89.0598M7.19864 24.1746L50.7067 3L91.1767 25.9691L75.7238 34.9414M7.19864 24.1746L22.3947 29.9169M7.19864 24.1746V44.6314M7.19864 44.6314L2 52.6335M7.19864 44.6314V52.6335M7.19864 44.6314L12.3973 52.6335" stroke="currentColor" stroke-width="4"/>
</svg>
