<svg width="93" height="77" viewBox="0 0 93 77" fill="none" xmlns="http://www.w3.org/2000/svg">
<path d="M39.5 36.3967L48 37.8749V46.8749M39.5 36.3967C38 40.0561 37.6 47.2749 48 46.8749M39.5 36.3967L21.5 33.2662M48 46.8749V54.375M8.5 40.3749L30 43.875M8.5 49.8749L38.5 54.875M30 62.3749L39.5 63.8749M59 19.5217L67.5 21V31M59 19.5217L21.5 14V33.2662M59 19.5217C57.5 23.1812 57.1 31.4 67.5 31M67.5 31V42.75M28 24.5L49.5 27.875M49.5 46.5L59 48.5M82 8.52174L90.5 10V21M82 8.52174L44.5 2V17.3867M82 8.52174C80.5 12.1812 80.1 21.4 90.5 21M90.5 21V47.5L67.5 42.75M51 12.375L73.5 16.375M72.5 35.5L82 37.5M21.5 33.2662L2 29.8749V63.8749L48 74.3749V54.375M48 54.375L67.5 58.5V42.75" stroke="currentColor" stroke-width="4" stroke-linecap="round" stroke-linejoin="round"/>
</svg>
