<svg width="145" height="141" viewBox="0 0 145 141" fill="none" xmlns="http://www.w3.org/2000/svg">
<path d="M66.5 52L50 35.5M66.5 52H50V35.5M66.5 52V65M50 35.5H2V126H66.5V93.25M30.5 52H41M30.5 65H57M11 76H57M11 86.5H57M11 98.5H57M11 110H57M33.5 35.5V2H81.5M98 47V18.5M98 18.5L81.5 2M98 18.5H81.5V2M62 15.5H72.5M62 32.5H88.5M57 42.5H88.5M66.5 53H78.5M66.5 76.5H78.5M143 64.5V138.5H78.5V93.25M143 64.5L126.5 48M143 64.5H126.5V48M126.5 48H78.5V65M107 64.5H117.5M107 77.5H133.5M87.5 88.5H133.5M87.5 99H133.5M87.5 111H133.5M87.5 122.5H133.5M78.5 93.25H66.5M78.5 93.25V65M66.5 93.25V65M66.5 65H78.5M62 23.5H72.5M23.5 52H11V65H23.5V52ZM55 15.5H42.5V28.5H55V15.5ZM100 64.5H87.5V77.5H100V64.5Z" stroke="currentColor" stroke-width="4" stroke-linecap="round" stroke-linejoin="round"/>
</svg>
