<svg width="153" height="87" viewBox="0 0 153 87" fill="none" xmlns="http://www.w3.org/2000/svg">
<path d="M45.3674 30.61H42.6164L38.2148 25.1081L39.9964 24.0077M45.3674 30.61V36.6621M45.3674 30.61H105.338M105.338 30.61H110.29L113.591 24.0077L75.628 2L39.9964 24.0077M105.338 30.61V36.6621M39.9964 24.0077H112.491" stroke="currentColor" stroke-width="3"/>
<path d="M49.2162 17.9556H15.6544L3 36.6621H149.351L136.147 17.9556H104.236H102.035" stroke="currentColor" stroke-width="3"/>
<rect x="5.60156" y="76.1255" width="37.7143" height="5.80308" stroke="currentColor" stroke-width="3"/>
<rect x="109.039" y="76.1255" width="37.7143" height="5.80308" stroke="currentColor" stroke-width="3"/>
<rect x="46.3164" y="76.1255" width="59.722" height="9.10425" stroke="currentColor" stroke-width="3"/>
<rect x="5.60156" y="37.6118" width="141.151" height="36.6139" stroke="currentColor" stroke-width="3"/>
<rect x="12.8047" y="41.5137" width="6.80308" height="9.00386" stroke="currentColor" stroke-width="2"/>
<rect x="109.641" y="41.5137" width="6.80308" height="9.00386" stroke="currentColor" stroke-width="2"/>
<rect x="12.8047" y="58.0195" width="6.80308" height="9.00386" stroke="currentColor" stroke-width="2"/>
<rect x="109.641" y="58.0195" width="6.80308" height="9.00386" stroke="currentColor" stroke-width="2"/>
<rect x="23.8086" y="41.5137" width="6.80308" height="9.00386" stroke="currentColor" stroke-width="2"/>
<rect x="120.645" y="41.5137" width="6.80308" height="9.00386" stroke="currentColor" stroke-width="2"/>
<rect x="23.8086" y="58.0195" width="6.80308" height="9.00386" stroke="currentColor" stroke-width="2"/>
<rect x="120.645" y="58.0195" width="6.80308" height="9.00386" stroke="currentColor" stroke-width="2"/>
<rect x="34.8125" y="41.5137" width="6.80308" height="9.00386" stroke="currentColor" stroke-width="2"/>
<rect x="73.3242" y="41.5137" width="6.80308" height="9.00386" stroke="currentColor" stroke-width="2"/>
<rect x="73.3242" y="58.0195" width="6.80308" height="15.6062" stroke="currentColor" stroke-width="2"/>
<rect x="131.645" y="41.5137" width="6.80308" height="9.00386" stroke="currentColor" stroke-width="2"/>
<rect x="34.8125" y="58.0195" width="6.80308" height="9.00386" stroke="currentColor" stroke-width="2"/>
<rect x="131.645" y="58.0195" width="6.80308" height="9.00386" stroke="currentColor" stroke-width="2"/>
<rect x="48.1172" y="38.3125" width="2.20077" height="35.2123" fill="currentColor"/>
<rect x="54.7188" y="38.3125" width="2.20077" height="35.2123" fill="currentColor"/>
<rect x="61.3203" y="38.3125" width="2.20077" height="35.2123" fill="currentColor"/>
<rect x="67.9258" y="38.3125" width="2.20077" height="35.2123" fill="currentColor"/>
<rect x="83.3281" y="38.3125" width="2.20077" height="35.2123" fill="currentColor"/>
<rect x="89.9336" y="38.3125" width="2.20077" height="35.2123" fill="currentColor"/>
<rect x="96.5352" y="38.3125" width="2.20077" height="35.2123" fill="currentColor"/>
<rect x="103.137" y="38.3125" width="2.20077" height="35.2123" fill="currentColor"/>
</svg>
