<svg width="119" height="107" viewBox="0 0 119 107" fill="none" xmlns="http://www.w3.org/2000/svg">
<path d="M20.4909 77.0933C17.5767 76.9054 14.33 77.2295 11.4521 78.6685C5.57078 81.6091 2 87.5955 2 90.221V104.399H37.7078C37.7078 102.124 37.7078 96.1024 37.7078 90.221C37.7078 84.3396 31.0563 80.0687 27.7306 78.6685C26.211 78.0428 23.5321 77.2893 20.4909 77.0933ZM20.4909 77.0933C17.3029 76.9182 11.032 74.9928 11.4521 68.6914C11.8721 62.3901 17.2283 60.4647 19.8539 60.2896C23.1796 60.2896 29.726 61.97 29.3059 68.6914C28.8858 75.4129 23.2542 77.0933 20.4909 77.0933ZM99.6505 77.0815C96.7707 76.9119 93.5786 77.2477 90.7443 78.6649C84.863 81.6055 81.2922 87.5919 81.2922 90.2174V104.395H117V90.2174C117 84.336 110.349 80.0651 107.023 78.6649C105.503 78.0392 102.824 77.2857 99.7831 77.0897M99.6505 77.0815C99.6948 77.0841 99.739 77.0868 99.7831 77.0897M99.6505 77.0815C96.4247 76.8611 90.33 74.9029 90.7443 68.6878C91.1644 62.3865 96.5206 60.461 99.1461 60.286C102.472 60.286 109.018 61.9664 108.598 68.6878C108.178 75.4093 102.546 77.0897 99.7831 77.0897M93.3699 20.379V51.8858H86.5434V63.9635L75.516 51.8858H42.9589L32.4566 63.9635V51.8858H26.1553V12.5023H83.9178M35.6073 40.3333L48.7352 28.2557L56.0868 34.032L70.2648 21.9543L75.516 26.6804L95.4703 7.77626M95.4703 7.77626L92.3196 3.57534L101.772 2L99.7831 12.5023L95.4703 7.77626Z" stroke="currentColor" stroke-width="4" stroke-linecap="round" stroke-linejoin="round"/>
</svg>
