<svg width="42" height="35" viewBox="0 0 42 35" fill="none" xmlns="http://www.w3.org/2000/svg">
<path d="M38.6812 13.4638L20.1304 1L1 13.4638L7.8323 17.8116M38.6812 13.4638H21.2899M38.6812 13.4638L32.3043 17.6486M38.6812 13.4638V22.1594M20.1304 6L10 12.5M38.6812 22.1594C38.1981 22.3527 37.2319 22.913 37.2319 23.6087C37.2319 24.3043 37.2319 28.5362 37.2319 30.5652H41V23.6087C40.8068 23.1256 40.0725 22.1594 38.6812 22.1594ZM7.8323 17.8116L20.1304 25.6377L32.3043 17.6486M7.8323 17.8116V29.9855C10.1925 32.5942 23 36.5 32.3043 29.9855V17.6486" stroke="#EFEFEF" stroke-width="2" stroke-linecap="round" stroke-linejoin="round"/>
</svg>
