<svg width="34" height="42" viewBox="0 0 34 42" fill="none" xmlns="http://www.w3.org/2000/svg">
<path d="M17 7.74757H33V23.9196M17 7.74757V13.597C15.7957 12.7942 13.043 11.5325 11.6667 12.9089C9.94624 14.6293 9.94624 16.6938 11.6667 18.0701C13.043 19.1712 15.7957 18.0701 17 17.382V23.9196M17 7.74757H10.6344C13.7312 5.33889 12.6989 2.93036 10.6344 1.55402C8.56989 0.177677 5.47312 1.55402 4.78495 3.61854C4.23441 5.27015 5.9319 7.0594 6.84946 7.74757H1V23.9196M17 23.9196H1M17 23.9196H22.6774C21.9892 23.1167 20.6817 21.1669 20.957 19.7906C21.3011 18.0701 24.3978 16.0056 26.4624 17.382C28.5269 18.7583 29.5591 20.4787 26.8065 23.9196H33M17 23.9196V29.7691C17.8602 29.1956 19.7871 28.1175 20.6129 28.3927C21.6452 28.7368 25.4301 30.4572 22.6774 34.2422C20.4753 37.2701 17.9749 35.0451 17 33.554V40.0916M1 23.9196V40.0916H17M33 23.9196V40.0916H17" stroke="white" stroke-width="2" stroke-linecap="round" stroke-linejoin="round"/>
</svg>
