<svg width="48" height="52" viewBox="0 0 48 52" fill="none" xmlns="http://www.w3.org/2000/svg">
<path d="M3.13127 36.8213V29.7745C3.23276 27.9149 5.56701 22.7277 11.3519 23.6085M3.13127 36.8213C4.34914 36.8213 6.48041 36.8213 6.78487 36.8213M3.13127 36.8213C2.42085 37.2128 1 38.4655 1 40.3447M11.3519 23.6085C11.5549 22.8255 12.5697 21.2596 15.0055 21.2596C17.4412 21.2596 28.1991 21.2596 33.2735 21.2596C34.1869 21.4553 36.0746 22.1991 36.3182 23.6085M11.3519 23.6085V26.8383M36.3182 23.6085C38.9569 23.3149 44.3561 24.137 44.8433 29.7745V36.8213M36.3182 23.6085V26.2511M33.2735 39.1702C35.9528 39.1702 36.4197 37.6043 36.3182 36.8213V26.2511M33.2735 39.1702C32.4159 39.1702 30.7451 39.1702 28.7065 39.1702M33.2735 39.1702V47.6851H36.3182V50.9149H25.9663V47.6851H28.7065V39.1702M11.3519 26.8383C11.3519 29.383 11.3519 34.9421 11.3519 36.8213C11.3519 38.2983 12.8567 38.9046 14.0921 39.0965M11.3519 26.8383C11.3519 25.2234 6.78487 27.6604 6.78487 29.7745C6.78487 31.8885 6.78487 35.3532 6.78487 36.8213M6.78487 36.8213C7.69827 37.2128 9.52508 38.4655 9.52508 40.3447M44.8433 36.8213H41.7986M44.8433 36.8213C45.6552 37.3106 47.2181 38.7004 46.9745 40.3447M41.7986 36.8213V30.3617C41.5956 28.7957 40.2154 25.7813 36.3182 26.2511M41.7986 36.8213C39.3628 37.7608 39.1599 39.5617 39.3628 40.3447M15.0055 10.3957H11.9608V16.5617H15.0055M15.0055 16.5617V18.617H33.2735V16.5617M15.0055 16.5617V8.04681H21.0948M33.2735 16.5617H36.9271V10.3957H33.2735M33.2735 16.5617V10.3957M33.2735 10.3957V8.04681H27.1842M14.0921 39.0965C14.4285 39.1487 14.7449 39.1702 15.0055 39.1702C16.319 39.1702 18.0263 39.1702 19.877 39.1702M14.0921 39.0965V47.6851H11.9608V50.9149H22.3127V47.6851H19.877V39.1702M19.877 39.1702C22.79 39.1702 26.0586 39.1702 28.7065 39.1702M21.0948 8.04681V3.93617H18.0502V1M21.0948 8.04681H27.1842M27.1842 8.04681V3.93617H30.5333V1M15.9189 27.7191V35.0596H32.0556V27.7191H15.9189Z" stroke="white" stroke-width="2" stroke-linecap="round" stroke-linejoin="round"/>
</svg>
